<svg xmlns="http://www.w3.org/2000/svg" width="235.462" height="318.377" viewBox="0 0 235.462 318.377"><defs><style>.a{fill:#fff;}.b{fill:#957f6e;}.c{fill:#b3b3b3;}.d{fill:#211715;}.e{fill:#ececec;}</style></defs><path class="a" d="M99.677,169.6a59.3,59.3,0,0,1-26.984-5.8c4.191,15.9,8.466,30.765,13.557,45.661,4.845,14.175,7.429,19.794,13.371,34.426,6.049-15.018,8.98-20.49,13.577-34.924,5.007-15.722,9.055-30,13.205-45.854A58.044,58.044,0,0,1,99.677,169.6Z"/><path class="b" d="M36.493,109.615a261.184,261.184,0,0,0,1.26-27.234C36.774,52.62,44.534,31.038,56.77,19.222,64.146,12.1,80.767,2.4,99.441,2.4a67.283,67.283,0,0,1,27.107,5.238l1.4.8,8.575,5.025a61.129,61.129,0,0,1,6.985,6.034c9.337,9.087,15.826,25.434,16.859,40.074.3,4.223.984,15.211.324,22.816.332,24.916,4.925,38.861,7.3,45.725a45.6,45.6,0,0,1,2.879,15.608c.084,9.326-12.768,21.335-25.537,17.7l-94.386,1.2c-12.2.294-20.144-8.686-20.076-16.966A96.9,96.9,0,0,1,33.818,125,97.255,97.255,0,0,0,36.493,109.615Z"/><path class="a" d="M83.656,167.8a51.961,51.961,0,0,1-10.962-4q-1.245-4.719-2.481-9.568c1.951-.905,3.377-1.565,3.47-1.6,4.5-1.625,4.32-4.517,4.887-7.752a61.189,61.189,0,0,0,.914-7.57,46.15,46.15,0,0,1-14.391-11.888A55.152,55.152,0,0,1,54.834,106.4a7.971,7.971,0,0,1-6.588-1.726c-3.9-3.193-5.521-7.646-6.509-10.557-1.4-4.111-1.484-10.754.595-14.36a6.812,6.812,0,0,1,6.118-3.4,7.516,7.516,0,0,1,4.53,1.3c1.461-.675,2.583-1.2,2.583-1.2,3.093-1.44,11.7-5.174,12.959-5.915a113.954,113.954,0,0,0,10.688-7.1c13.886-2.547,34.642-13.943,40.275-22.1,2.1,6.572,3.423,12.519,10.477,22.024,4.606,6.207,10.52,10.106,14,12.809l2.4,1.864a7.342,7.342,0,0,1,5.008-1.688,6.812,6.812,0,0,1,6.118,3.4c2.079,3.606,1.991,10.249.595,14.36-.988,2.911-2.607,7.364-6.51,10.557a8.082,8.082,0,0,1-6.238,1.8l-.43-.072c-.739,2.155-1.662,4.072-1.974,5.019-1.635,4.437-10.974,20.456-22.594,25.712a65.941,65.941,0,0,0,.91,7.755c.567,3.235.39,6.127,4.888,7.752.083.03,1.153.532,2.658,1.242-.8,3.148-1.6,6.218-2.381,9.233C113.993,169.848,97.585,171.226,83.656,167.8Z"/><path class="c" d="M128.367,155.515c-4.866,18.994-9.376,35.258-15.169,53.449-4.6,14.435-7.528,19.907-13.574,34.931C93.68,229.258,91.1,223.639,86.25,209.462,80.009,191.2,75,172.985,69.859,152.862a81.44,81.44,0,0,0-7.525,4.722c-11.205,3.61-21.841,6.337-31.356,13.365-4.247,3.137-8.332,6.656-11.227,11.124-3.508,5.414-5.193,10.776-6.683,17.09-1.722,7.3-2.993,14.054-4.611,23.781A464.011,464.011,0,0,0,2.513,276.25c-.467,7.587.264,15.735,3.111,22.756s9.994,13.65,17.105,15.833a24.258,24.258,0,0,0,7.538,1.138c19.71,0,83.569-.031,127.379-.05.39-6.91.99-17.46,1.11-20.15.233-5.144.48-10,.739-14.7l1.05,2c7.067,11.27,21.488,16.188,33.482,13.734a28.4,28.4,0,0,0,21.926-20.074c4.28-15.068,7.675-38.418,9.1-51.659a.876.876,0,0,0-.774-.968c-5.13-.6-10.627-1.287-16.217-2.055-9.974-15.544-29.189-45.493-29.189-45.493-5.828-7.371-10.558-9.858-16.55-12.393a154.359,154.359,0,0,0-21.892-6.653l-7.4-2.333c-1.471-.9-2.833-1.684-3.98-2.326Q128.705,154.2,128.367,155.515Z"/><path class="d" d="M40.152,82.381C39.576,64.052,41.836,44.135,52.2,28.489A47.491,47.491,0,0,1,67.774,14,63.491,63.491,0,0,1,96.156,4.9a66.94,66.94,0,0,1,17.955,1.331,65.5,65.5,0,0,1,7.52,2.1c1.221.421,2.425.884,3.628,1.353.1.039.594.3.117.044.153.083.3.173.453.259l.906.518c2.687,1.534,5.108-2.611,2.423-4.145a46.456,46.456,0,0,0-11.773-4.3A73.129,73.129,0,0,0,100.867.008,67.3,67.3,0,0,0,68.775,7.946,55.18,55.18,0,0,0,50.03,23.284,67.752,67.752,0,0,0,39.2,46.1c-3.292,11.754-4.228,24.117-3.845,36.28.1,3.081,4.9,3.095,4.8,0Z"/><path class="d" d="M163.09,82.381a122.891,122.891,0,0,0,.1-15.437,122.322,122.322,0,0,0-1.076-13.124,69.51,69.51,0,0,0-11.857-30.083,56.54,56.54,0,0,0-12.521-12.352,2.417,2.417,0,0,0-3.283.861,2.455,2.455,0,0,0,.861,3.284,52.584,52.584,0,0,1,17.5,22.741,73.021,73.021,0,0,1,4.411,15.239A98.547,98.547,0,0,1,158.34,65.9a126.84,126.84,0,0,1-.05,16.486,2.419,2.419,0,0,0,2.4,2.4,2.449,2.449,0,0,0,2.4-2.4Z"/><path class="d" d="M35.354,82.381c-.009,13-.273,26.409-3.134,39.122-.569,2.53-1.3,5.012-1.81,7.558-.7,3.54-1.22,7.124-1.58,10.715a33.208,33.208,0,0,0-.09,8.845,17.73,17.73,0,0,0,3.226,7.418,22.814,22.814,0,0,0,18.976,8.979c3.086-.049,3.095-4.849,0-4.8-5.614.089-11.208-1.984-14.742-6.483a13.876,13.876,0,0,1-2.809-6.253c-.4-2.2,0-5.4.258-7.9.331-3.225.819-6.437,1.463-9.614.491-2.422,1.2-4.784,1.736-7.192a122.292,122.292,0,0,0,2.284-15.557c.766-8.255,1.017-16.554,1.022-24.841,0-3.089-4.8-3.094-4.8,0Z"/><path class="d" d="M158.29,82.381c.191,13.194,1.518,26.514,5.122,39.244,1.274,4.5,3.068,8.863,4.1,13.429.7,3.109,1.389,7.33.844,10.171a15.488,15.488,0,0,1-3.591,7.137c-4.583,5.346-11.775,8.657-18.8,6.74-2.985-.814-4.258,3.815-1.277,4.629,7.281,1.987,14.742-.349,20.46-5.037a23.917,23.917,0,0,0,6.216-7.643,18.334,18.334,0,0,0,1.83-9.584,49.412,49.412,0,0,0-2.453-12.681c-.594-1.82-1.24-3.622-1.812-5.45a117.914,117.914,0,0,1-3.556-14.689,164.281,164.281,0,0,1-2.285-26.266c-.045-3.086-4.845-3.095-4.8,0Z"/><path class="d" d="M143.444,102.539a23.728,23.728,0,0,1-1.817,5.724c-.279.679-.58,1.351-.842,2.036-.075.195-.144.391-.216.586-.028.077-.062.151-.089.228-.155.442.183-.409.059-.135a51.3,51.3,0,0,1-3.1,5.763,57.586,57.586,0,0,1-12.369,14.606,22.892,22.892,0,0,1-9.2,4.762c-3.009.7-1.735,5.325,1.276,4.629,7.068-1.633,12.95-6.794,17.564-12.16a63.2,63.2,0,0,0,9.827-14.835,41.012,41.012,0,0,0,3.712-11.2,2.412,2.412,0,0,0-2.4-2.4,2.462,2.462,0,0,0-2.4,2.4Z"/><path class="d" d="M51.432,102.993c3.321,14.3,12.28,28.174,25.218,35.524a32.741,32.741,0,0,0,11.285,4.012,2.479,2.479,0,0,0,2.952-1.677,2.418,2.418,0,0,0-1.676-2.952c-13.914-2.07-24.673-14.4-30.056-26.68a54.36,54.36,0,0,1-3.095-9.5c-.7-3.007-5.328-1.734-4.628,1.276Z"/><path class="d" d="M55.453,76.6A10.386,10.386,0,0,0,44.022,75a10.037,10.037,0,0,0-5.091,6.967,26.252,26.252,0,0,0,4.041,20.408c2.86,4.15,6.913,7.128,12.15,6.413a2.416,2.416,0,0,0,1.677-2.953,2.465,2.465,0,0,0-2.953-1.676c-3.589.49-6.4-3.364-7.875-6.082A22.633,22.633,0,0,1,43.2,89.178a19.7,19.7,0,0,1,.214-5.257,11.98,11.98,0,0,1,.583-2.14,6.659,6.659,0,0,1,.5-.96c.036-.059.411-.6.246-.387a4.8,4.8,0,0,1,2.935-1.613,5.228,5.228,0,0,1,4.389,1.172c2.286,2.068,5.691-1.317,3.394-3.395Z"/><path class="d" d="M147.754,79.993a5.318,5.318,0,0,1,7.385.518c-.326-.4.133.224.185.31a6.659,6.659,0,0,1,.5.96,11.628,11.628,0,0,1,.548,1.967,19.531,19.531,0,0,1,.249,5.43,22.6,22.6,0,0,1-2.693,8.739c-1.471,2.765-4.311,6.736-7.958,6.238a2.485,2.485,0,0,0-2.953,1.676,2.418,2.418,0,0,0,1.676,2.953c8.536,1.165,13.5-7.153,15.749-14.183a24.769,24.769,0,0,0,.717-11.253,11.222,11.222,0,0,0-4.358-7.77A10.287,10.287,0,0,0,144.36,76.6c-2.3,2.077,1.107,5.463,3.394,3.395Z"/><path class="d" d="M92.614,46.217A61.778,61.778,0,0,1,77.645,61.635a113.6,113.6,0,0,1-9.774,6.5,53.738,53.738,0,0,1-5.647,2.714c-2.625,1.177-5.264,2.324-7.873,3.535a2.421,2.421,0,0,0-.861,3.284,2.457,2.457,0,0,0,3.284.861c4.273-1.984,8.8-3.616,12.923-5.895A88.093,88.093,0,0,0,88.662,58.489a59.388,59.388,0,0,0,8.1-9.85c1.691-2.6-2.463-5-4.144-2.422Z"/><path class="d" d="M117.569,39.9c-.12.178-.241.353-.366.527-.249.345.1-.109-.178.23q-.544.662-1.133,1.285a34.414,34.414,0,0,1-2.508,2.368,58.405,58.405,0,0,1-6.641,4.846A95.817,95.817,0,0,1,90.055,57.7a69.152,69.152,0,0,1-9.744,3.072c-3.01.689-1.736,5.318,1.276,4.629A83.5,83.5,0,0,0,99.98,58.489a83.748,83.748,0,0,0,16.112-10.2,28.527,28.527,0,0,0,5.621-5.959c1.729-2.571-2.428-4.976-4.144-2.423Z"/><path class="d" d="M145.655,74.48c-2.493-1.93-5.061-3.757-7.441-5.831A47.29,47.29,0,0,1,130,59.285a52.761,52.761,0,0,1-5.023-9.154c-1.1-2.654-1.925-5.411-2.778-8.151-.914-2.94-5.549-1.686-4.628,1.276,2.035,6.546,4.433,12.726,8.284,18.452a51.939,51.939,0,0,0,8.528,9.951c2.45,2.179,5.536,4.4,7.877,6.215a2.481,2.481,0,0,0,3.394,0,2.415,2.415,0,0,0,0-3.394Z"/><path class="d" d="M77.053,137.863a61.263,61.263,0,0,1-.761,6.171,35.731,35.731,0,0,1-.669,3.739c-.042.15-.311.848-.141.481a5.751,5.751,0,0,1-.385.69c-.208.321.209-.228-.05.071-.08.092-.163.181-.25.266a2.223,2.223,0,0,1-.688.52,22.12,22.12,0,0,1-2.057.949c-3.565,1.621-7.105,3.3-10.662,4.932q-1.379.635-2.76,1.261c-.328.148-.658.293-.987.441-.609.274.553-.2.011-.007a2.462,2.462,0,0,0-1.676,2.953,2.421,2.421,0,0,0,2.952,1.676c1.417-.507,2.787-1.217,4.152-1.844q3.282-1.5,6.555-3.028l4.838-2.239a1.945,1.945,0,0,0,.388-.176c-.015.013-.905.362-.374.166.262-.1.518-.207.774-.317a10.029,10.029,0,0,0,1.395-.7,8.128,8.128,0,0,0,3.3-3.973,19.649,19.649,0,0,0,.883-4.129c.433-2.625.829-5.248,1.011-7.906a2.4,2.4,0,1,0-4.8,0Z"/><path class="d" d="M117.936,137.128a79.558,79.558,0,0,0,1.424,11.1,8.791,8.791,0,0,0,5.956,6.664c.591.222-.773-.363-.086-.037.245.117.493.229.739.344q1.169.546,2.332,1.1,3,1.415,5.993,2.834c1.374.65,2.737,1.339,4.131,1.945a2.479,2.479,0,0,0,3.284-.861,2.417,2.417,0,0,0-.861-3.283c-2.976-1.293-5.88-2.775-8.813-4.161-1.423-.672-2.842-1.355-4.273-2.009-.657-.3-1.344-.534-1.97-.9a2.976,2.976,0,0,1-.648-.45c-.065-.06-.486-.5-.285-.251a2.452,2.452,0,0,1-.65-1.3,33.567,33.567,0,0,1-.727-4.017,63.551,63.551,0,0,1-.746-6.714,2.453,2.453,0,0,0-2.4-2.4,2.423,2.423,0,0,0-2.4,2.4Z"/><path class="d" d="M91.3,116.917a18.905,18.905,0,0,0,9.1,2.107,14.818,14.818,0,0,0,9.19-2.714,2.413,2.413,0,0,0,0-3.395,2.462,2.462,0,0,0-3.394,0c.73-.568.172-.139-.015-.019s-.37.225-.562.325c-.1.052-.2.1-.3.15-.366.188.01-.1.1-.035a4.51,4.51,0,0,0-.774.281,13.739,13.739,0,0,1-2.167.495c.358-.054-.042,0-.195.016-.213.021-.425.039-.639.053-.512.033-1.026.046-1.54.043q-.69,0-1.379-.05c-.211-.014-.421-.031-.632-.052-.031,0-.8-.112-.293-.032a15.738,15.738,0,0,1-2.025-.449c-.283-.085-.56-.187-.839-.283-.611-.208.363.187-.188-.073-.347-.163-.689-.334-1.029-.513a2.4,2.4,0,1,0-2.423,4.145Z"/><path class="d" d="M99.157,95.505a42.616,42.616,0,0,1,1,4.587l-.086-.638a2.8,2.8,0,0,1,.017.633l.086-.638a1.541,1.541,0,0,1-.07.285l.242-.573a1.159,1.159,0,0,1-.1.183l.375-.486a.913.913,0,0,1-.15.148l.486-.375a3.08,3.08,0,0,1-.364.192l.574-.242a2.628,2.628,0,0,1-.613.179l.638-.086a2.449,2.449,0,0,1-.574,0l.638.086c-.217-.031-.43-.083-.647-.112a1.812,1.812,0,0,0-.957-.043,1.783,1.783,0,0,0-.892.284,2.4,2.4,0,0,0-.861,3.284,2.3,2.3,0,0,0,1.434,1.1c.5.067.981.194,1.487.216a4.765,4.765,0,0,0,2.2-.523,3.181,3.181,0,0,0,1.76-2.095,5.264,5.264,0,0,0-.022-2.252c-.25-1.478-.591-2.942-.972-4.392a2.4,2.4,0,0,0-4.628,1.276Z"/><path class="d" d="M74.964,82.51C74.2,84.992,74.7,90.7,79.4,91.187c6.215-.037,6.545-6.94,4.453-10.186C82.14,78.344,77.1,77.239,74.964,82.51Z"/><path class="d" d="M124.849,82.51c.764,2.482.266,8.191-4.436,8.677-6.214-.037-6.545-6.94-4.453-10.186C117.672,78.344,122.709,77.239,124.849,82.51Z"/><path class="d" d="M139.789,159.836a136.319,136.319,0,0,1,20.812,6.212,44.263,44.263,0,0,1,8.293,4.2,37.474,37.474,0,0,1,8.278,8.012,2.415,2.415,0,0,0,3.394,0,2.46,2.46,0,0,0,0-3.395,41.6,41.6,0,0,0-8.974-8.575,48.6,48.6,0,0,0-9.162-4.653,131.627,131.627,0,0,0-21.365-6.435c-3.01-.663-4.3,3.964-1.276,4.629Z"/><path class="d" d="M39.985,245.327c-1.536-12.2-2.692-24.456-3.56-36.72a2.459,2.459,0,0,0-2.4-2.4,2.42,2.42,0,0,0-2.4,2.4c.868,12.264,2.024,24.52,3.56,36.72a2.476,2.476,0,0,0,2.4,2.4,2.414,2.414,0,0,0,2.4-2.4Z"/><path class="d" d="M160.046,315.927c.672-11.9,1.235-23.806,1.9-35.706.728-13.087,1.626-26.165,2.477-39.245q.846-13.011,1.607-26.029c.178-3.086-4.622-3.076-4.8,0-.836,14.465-1.805,28.923-2.745,43.382-.833,12.8-1.53,25.595-2.171,38.4-.32,6.4-.7,12.8-1.064,19.2-.174,3.086,4.626,3.076,4.8,0Z"/><path class="d" d="M29.256,318.377q19.524,0,39.048-.012l57.8-.024,31.547-.014c3.088,0,3.094-4.8,0-4.8l-57.721.025-52.532.021q-9.069,0-18.137,0c-3.089,0-3.094,4.8,0,4.8Z"/><path class="d" d="M61.381,155.372c-7.539,2.414-15.184,4.591-22.352,8a55.787,55.787,0,0,0-18.941,14.23c-5.06,6.144-7.625,13.638-9.42,21.285C9,206.006,7.676,213.193,6.462,220.4c-2.223,13.187-4.035,26.426-5.181,39.752q-.514,5.991-.906,11.991a92.98,92.98,0,0,0-.249,12.567c.546,7.993,2.5,15.97,7.581,22.318A29.675,29.675,0,0,0,26.8,318.157c7.342.955,14.144-1.77,20.246-5.642,1.621-1.029,3.2-2.123,4.765-3.234A2.466,2.466,0,0,0,52.672,306a2.42,2.42,0,0,0-3.284-.861c-5.284,3.749-11.166,7.886-17.842,8.382-6.834.508-13.206-2.441-18.006-7.182C2.276,295.215,4.666,277.76,5.808,263.456c1-12.531,2.547-24.982,4.557-37.39,1.139-7.03,2.345-14.054,3.837-21.019,1.463-6.834,2.975-13.8,6.494-19.917,3.695-6.425,9.725-11.389,16.048-15.116,6.392-3.768,13.444-6.084,20.486-8.3,1.809-.57,3.62-1.135,5.427-1.713,2.93-.939,1.677-5.575-1.276-4.629Z"/><path class="d" d="M87.143,245.733c-11.621-18.469-23.208-37-33.724-56.124-.68-1.237-1.349-2.48-2.024-3.72a3.579,3.579,0,0,1-.249-.455c-.067-.222-.125.314-.006.095a7.111,7.111,0,0,1,1.57-1.49c2.236-1.952,4.8-3.5,7.19-5.253a2.437,2.437,0,0,0,0-4.145c-1.47-.943-2.914-1.927-4.365-2.9-.737-.494-1.476-.986-2.222-1.467q-.447-.29-.9-.572c-.233-.145-1-.86-.711-.347l.328,1.212.019-.42-.328,1.212c1.629-3.819,5.444-6.826,8.645-9.352a77.259,77.259,0,0,1,10.7-7.073L67.545,153.5c6.181,24.2,12.775,48.43,21.9,71.714,2.246,5.729,4.632,11.4,6.958,17.1a2.477,2.477,0,0,0,2.952,1.676,2.416,2.416,0,0,0,1.677-2.952c-4.175-10.225-8.4-20.4-12-30.85-4.13-11.971-7.776-24.1-11.139-36.307-1.984-7.2-3.873-14.423-5.721-21.657a2.427,2.427,0,0,0-3.525-1.434,73.9,73.9,0,0,0-16.122,11.7,33.288,33.288,0,0,0-3.281,3.718c-.985,1.3-2.23,2.973-1.972,4.682.322,2.135,3.1,3.181,4.722,4.255,1.831,1.21,3.635,2.46,5.483,3.645v-4.145c-2.327,1.713-4.764,3.27-7.029,5.066-2.164,1.715-4.832,3.9-3.932,7a18.494,18.494,0,0,0,1.736,3.454q1.023,1.88,2.062,3.75,2.025,3.651,4.1,7.271c5.846,10.195,11.94,20.246,18.124,30.238Q77.735,239.813,83,248.155c1.641,2.609,5.8.2,4.144-2.422Z"/><path class="d" d="M103.042,241.816c4.122-10.091,8.511-20.04,11.891-30.416,3.939-12.092,7.488-24.317,10.83-36.587q2.9-10.63,5.6-21.313l-3.526,1.434a107.135,107.135,0,0,1,10.861,6.9c3.125,2.287,6.88,5.079,8.419,8.687l-.328-1.211.019.411.328-1.212c.306-.551-.283.077-.507.215q-.531.33-1.058.671c-.731.471-1.456.954-2.179,1.439-1.424.954-2.84,1.92-4.283,2.845a2.437,2.437,0,0,0,0,4.145c2.009,1.478,4.142,2.8,6.095,4.353.432.343.853.7,1.263,1.07a5.7,5.7,0,0,1,1.246,1.214c-.095-.2.02-.272-.28.276-.336.617-.667,1.236-1,1.853q-3.717,6.831-7.631,13.554c-5.447,9.4-11.093,18.682-16.815,27.915q-4.779,7.71-9.618,15.381c-1.65,2.622,2.5,5.034,4.145,2.423,12.127-19.273,24.364-38.589,35.067-58.7.826-1.552,1.268-3.112.448-4.784a10.376,10.376,0,0,0-2.792-3.07c-2.43-2.058-5.142-3.743-7.7-5.627v4.145c1.812-1.163,3.583-2.389,5.379-3.576,1.511-1,4.085-1.977,4.612-3.889.47-1.707-.785-3.429-1.763-4.718a28.28,28.28,0,0,0-3.3-3.625,83.938,83.938,0,0,0-16.2-11.221,2.426,2.426,0,0,0-3.526,1.434c-3.179,12.48-6.486,24.927-10.1,37.289-3.359,11.488-6.767,23.016-11.214,34.139-2.262,5.659-4.7,11.246-7,16.888a2.416,2.416,0,0,0,1.677,2.952,2.459,2.459,0,0,0,2.952-1.676Z"/><path class="d" d="M72.839,166.531c13.007,5.976,28.328,7,42.164,3.516a56.09,56.09,0,0,0,11.5-4.28c2.76-1.387.332-5.53-2.423-4.144-11.715,5.889-25.947,6.991-38.652,4.125a51.4,51.4,0,0,1-10.165-3.362,2.471,2.471,0,0,0-3.284.861,2.42,2.42,0,0,0,.861,3.284Z"/><path class="a" d="M216.1,230.482a92.459,92.459,0,0,1,.964-10.026,20.141,20.141,0,0,0,6.692-5.141,21.827,21.827,0,0,0,3.122-4.68c2.6-6.144,4.442-12.915,4.317-17.7a6.383,6.383,0,0,0,.459-1.485c.451-2.643.863-5.293,1.215-7.945.264-2.021.483-4.172-.353-6.034A5.649,5.649,0,0,0,223.164,176a5.105,5.105,0,0,0-3.715-4.559,6.109,6.109,0,0,0-6.116,2.1l-.277.337-.611-1.482a6.2,6.2,0,0,0-4.533-3.13,5.2,5.2,0,0,0-5.212,2.905s-.308.31-.744.752c1.734-9.617,3.654-23.33,4.279-29.53a5.047,5.047,0,0,0-4.325-5.631c-4.181-.545-6.032,1.968-6.615,5.264-1.844,10.352-4.175,22.511-5.789,34.34-2.567.9-4.615,2.664-5.027,5.457-.479,3.252-1.067,6.489-1.389,9.76a36.649,36.649,0,0,0,.213,11.058,15.675,15.675,0,0,0,5.483,9.383,21.407,21.407,0,0,0,1.9,1.3,101.048,101.048,0,0,1-1.538,11.159Z"/><path class="d" d="M228.745,194.931a38.41,38.41,0,0,1-1.565,7.781,34.97,34.97,0,0,1-3.145,8.154c-2.415,4.025-6.228,7.431-10.952,8.233a2.419,2.419,0,0,0-1.676,2.952,2.457,2.457,0,0,0,2.952,1.677c5.771-.98,10.589-5.261,13.617-10.107a38.193,38.193,0,0,0,3.705-9.205,45.031,45.031,0,0,0,1.864-9.485,2.419,2.419,0,0,0-2.4-2.4,2.449,2.449,0,0,0-2.4,2.4Z"/><path class="d" d="M191.82,178.005q1.3-9.46,2.972-18.862.823-4.624,1.737-9.231.407-2.04.831-4.075a20.281,20.281,0,0,1,.9-3.689c.616-1.474,1.568-2.333,3.16-2.041,1.439.263,2,2.187,1.976,3.493a52.3,52.3,0,0,1-.73,5.9q-.486,3.681-.985,7.359-1.215,8.968-2.509,17.926a2.48,2.48,0,0,0,1.676,2.952,2.416,2.416,0,0,0,2.952-1.676q1.309-8.955,2.51-17.926.585-4.317,1.156-8.635c.282-2.127.876-4.463.7-6.613a8.523,8.523,0,0,0-3.65-6.667,7.326,7.326,0,0,0-7.812.339c-2.234,1.624-3.163,4.141-3.716,6.747q-1.011,4.76-1.912,9.543-2.247,11.888-3.893,23.878a2.484,2.484,0,0,0,1.677,2.953,2.417,2.417,0,0,0,2.952-1.676Z"/><path class="d" d="M191.46,226.117a104.237,104.237,0,0,0,1.566-11.083,2.409,2.409,0,0,0-2.4-2.4,2.462,2.462,0,0,0-2.4,2.4q-.11,1.238-.251,2.474c-.049.432-.1.863-.156,1.295-.009.066-.1.8-.056.431s-.051.368-.061.434c-.244,1.732-.53,3.457-.871,5.173a2.4,2.4,0,0,0,4.629,1.276Z"/><path class="d" d="M195.628,214.108a20.968,20.968,0,0,1-6.3-3.778,13.266,13.266,0,0,1-3.34-5.837c-1.695-5.818-.566-12.25.354-18.109.326-2.081.268-4.426,2.093-5.8,2.034-1.537,5.051-1.805,7.461-2.343q1.065-.238,2.131-.481c.093-.021,1.351-.191.6-.146.267-.016.532-.038.8-.038.225,0,.451.009.676.026.5.037-.233-.075.329.046,1.3.281,2.728.961,2.985,2.643.325,2.14-2.508,3.368-4.107,4.237-2.278,1.24-4.655,2.279-7.015,3.352a2.418,2.418,0,0,0-.861,3.283,2.457,2.457,0,0,0,3.284.861c2.574-1.171,5.158-2.311,7.63-3.69,2.619-1.461,5.223-3.325,5.764-6.49.948-5.549-4.36-9.487-9.485-9.03a33.1,33.1,0,0,0-4.248.851A52.5,52.5,0,0,0,189,175a9.987,9.987,0,0,0-6.361,5.543,20.678,20.678,0,0,0-.923,4.563c-.313,2-.621,4-.863,6a44.62,44.62,0,0,0-.2,11.1,20.322,20.322,0,0,0,4.023,10.085c2.216,2.808,5.318,4.519,8.528,5.952a2.475,2.475,0,0,0,3.284-.861,2.419,2.419,0,0,0-.861-3.284Z"/><path class="d" d="M203.226,201.42a12.5,12.5,0,0,1-.54,1.6l.242-.574a9.209,9.209,0,0,1-1.14,1.973l.376-.485a9.286,9.286,0,0,1-1.181,1.255,2.4,2.4,0,0,0,1.7,4.1,2.629,2.629,0,0,0,1.7-.7,11.891,11.891,0,0,0,3.476-5.884,2.493,2.493,0,0,0-.242-1.85,2.4,2.4,0,0,0-3.283-.861,2.489,2.489,0,0,0-1.1,1.435Z"/><path class="d" d="M214.681,220.178a97.86,97.86,0,0,0-.977,10.3,2.412,2.412,0,0,0,2.4,2.4,2.459,2.459,0,0,0,2.4-2.4c.128-1.7.227-3.406.359-5.107.06-.767.126-1.534.21-2.3.018-.16.036-.32.055-.48l.039-.313c-.052.381-.059.441-.023.18.05-.338.1-.675.165-1.01a2.4,2.4,0,1,0-4.628-1.276Z"/><path class="d" d="M204.773,173.381a3.065,3.065,0,0,1,5.236-.411c.08.1.131.221.206.323.19.256-.052-.07-.058-.135.035.384-.032-.594.009.043.029.466.066.929.077,1.4.029,1.189,0,2.38-.058,3.569-.124,2.75-.361,5.5-.692,8.232a17.5,17.5,0,0,1-.473,3.175,1.828,1.828,0,0,1-1.49,1,2.983,2.983,0,0,1-2.555-.939c-.719-.979-.578-2.413-.4-3.877a2.413,2.413,0,0,0-2.4-2.4,2.459,2.459,0,0,0-2.4,2.4,9.8,9.8,0,0,0,.851,5.966,7.321,7.321,0,0,0,4.585,3.425,7.606,7.606,0,0,0,5.725-.785,6.33,6.33,0,0,0,2.913-4.7,106.077,106.077,0,0,0,1.115-11.05c.076-1.516.133-3.042.062-4.559a6.446,6.446,0,0,0-1.6-4.434c-3.565-3.946-10.3-3.607-12.794,1.337a2.459,2.459,0,0,0,.861,3.284,2.424,2.424,0,0,0,3.284-.861Z"/><path class="d" d="M224.857,177.686a3.3,3.3,0,0,1,5.31.456,6.451,6.451,0,0,1,.472,3.916c-.154,1.74-.447,3.474-.715,5.2a20.459,20.459,0,0,1-.886,4.649,2.01,2.01,0,0,1-.732.956c.349-.27-.672.268-.229.11-.08.029-.731.139-.367.1a3.363,3.363,0,0,1-1.522-.24c-.446-.145.1.1-.312-.133-.068-.039-.574-.43-.236-.127a3.431,3.431,0,0,1-.3-.3q.195.271.053.06c-.058-.091-.341-.734-.2-.334a4.08,4.08,0,0,1-.265-1.464,2.452,2.452,0,0,0-2.4-2.4,2.423,2.423,0,0,0-2.4,2.4c.162,3.143,1.474,5.723,4.546,6.845a6.779,6.779,0,0,0,8.239-2.583,12.65,12.65,0,0,0,1.44-5.013q.505-3.137.919-6.286c.461-3.561.267-7.394-2.741-9.84a8.146,8.146,0,0,0-11.069.631c-2.176,2.2,1.216,5.593,3.394,3.394Z"/><path class="d" d="M209.381,190.064a7.277,7.277,0,0,0,5.688,6.743,7.966,7.966,0,0,0,8.979-3.763c.817-1.48.825-3.305.969-4.959.167-1.911.265-3.827.341-5.743.148-3.7.957-7.908-1.661-10.942-3.19-3.7-9-3.067-12.061.443a2.46,2.46,0,0,0,0,3.394,2.422,2.422,0,0,0,3.394,0,3.966,3.966,0,0,1,3.449-1.565,2.753,2.753,0,0,1,2.28,2.2,31.349,31.349,0,0,1-.146,4.992c-.062,1.8-.138,3.6-.257,5.4-.06.9-.13,1.793-.22,2.688-.04.39-.081.781-.131,1.171-.023.179-.2.837.06.173a3.112,3.112,0,0,1-1.62,1.757,3.677,3.677,0,0,1-3.573-.542c.246.2-.217-.248-.258-.3.249.288-.215-.361-.263-.455.227.443-.086-.3-.12-.406-.032-.127-.058-.255-.079-.384.042.327.051.356.029.087a2.455,2.455,0,0,0-2.4-2.4,2.421,2.421,0,0,0-2.4,2.4Z"/><path class="c" d="M194.707,220.092c-3.184-.505-6.328-1.032-9.382-1.578a.877.877,0,0,0-1.016.672C183,225,181.335,233.726,179.9,241.6l41.905,7.222c1.449-8.879,2.569-17.448,3.244-23.737a.876.876,0,0,0-.774-.968C215.074,223.043,204.7,221.676,194.707,220.092Z"/><path class="d" d="M182.214,242.236q1.094-6,2.252-11.977.526-2.7,1.078-5.39.271-1.323.554-2.644.112-.531.229-1.062c.055-.253.473-1.232.051-.821l-1.059.617q-.4-.1.023-.015l.657.117,1.1.192q1.221.212,2.445.416,2.48.415,4.964.807,5.026.793,10.068,1.5,5.073.717,10.157,1.368,2.313.3,4.629.581,1.185.146,2.372.287l1.276.152.423.05q.943.159-.194-.17l-.617-1.059c-.069-.181.028.03,0,.174a5.034,5.034,0,0,0-.062.568q-.064.583-.131,1.168-.148,1.313-.307,2.624-.336,2.784-.708,5.563-.816,6.084-1.8,12.146c-1.357,8.405-2.9,16.8-5,25.057a34.82,34.82,0,0,1-4.3,10.9,25.052,25.052,0,0,1-7.478,7.3,28.525,28.525,0,0,1-19.355,4.061c-8.354-1.189-16.286-5.685-20.862-12.876-1.654-2.6-5.809-.194-4.145,2.422,6.594,10.363,19.039,16.2,31.217,15.486,11.484-.67,22.36-7.469,27.029-18.157,2.5-5.718,3.633-12.148,4.871-18.236,1.329-6.537,2.446-13.117,3.436-19.713.886-5.9,1.679-11.814,2.332-17.743.195-1.777-.4-3.565-2.309-4.091a38.877,38.877,0,0,0-5.467-.684q-5.611-.687-11.213-1.454-5.728-.789-11.444-1.675-2.829-.441-5.655-.911a46.679,46.679,0,0,0-5.944-1c-2.258-.073-3.172,1.695-3.589,3.6q-.511,2.333-.983,4.671c-.747,3.666-1.453,7.34-2.141,11.017q-.52,2.776-1.027,5.557a2.467,2.467,0,0,0,1.677,2.952,2.421,2.421,0,0,0,2.952-1.676Z"/><path class="a" d="M90.22,225.653c-3.378,1.976-16.772,9.972-25.586,15.317l-1.458-7.8a56.763,56.763,0,0,0-13.148,8.741,15.353,15.353,0,0,0-3.684,6.112c-1.527,4.463-2.879,10.888-2.021,16.707l.1.673a50.706,50.706,0,0,0,13.5,17.43,83.368,83.368,0,0,0,15.287-1.155,25.661,25.661,0,0,0,9.809-4.579,79.064,79.064,0,0,0,18.437-17.4,5.284,5.284,0,0,0,.966-2.513,2.9,2.9,0,0,0-.766-2.493l-1.912-1.778c.743-.585,1.268-1.014,1.49-1.227a8.4,8.4,0,0,0,2.316-3.149,4.216,4.216,0,0,0,.045-2.425,3.051,3.051,0,0,0-3.564-2.651l-1.741.265c1.958-1.438,3.4-2.514,3.915-2.924.23-.184.467-.383.7-.593a14.555,14.555,0,0,0,3.448-4.241,4.729,4.729,0,0,0-.644-4.948c-1.344-1.784-3.687-2.379-6.791-1.412a4.077,4.077,0,0,0-1.192-3.96c-1.939-2.143-5.508-1.154-7.028-.278Z"/><path class="d" d="M46.637,264.092a30.067,30.067,0,0,1,.569-10.134,26.221,26.221,0,0,1,2.9-8.352c1.42-2.326,3.911-4.048,6.118-5.587a72.071,72.071,0,0,1,8.262-4.831c2.747-1.415.322-5.558-2.422-4.144a69.505,69.505,0,0,0-8.853,5.248c-2.815,2.027-5.69,4.181-7.452,7.231a31.623,31.623,0,0,0-3.312,9.785,36.572,36.572,0,0,0-.443,12.06,2.414,2.414,0,0,0,2.952,1.677,2.465,2.465,0,0,0,1.676-2.953Z"/><path class="e" d="M68.144,189.215h36.05a5.014,5.014,0,0,1,5.014,5.014v73.109a5.014,5.014,0,0,1-5.014,5.014H68.144a5.015,5.015,0,0,1-5.015-5.015V194.23a5.015,5.015,0,0,1,5.015-5.015Z" transform="matrix(0.983, -0.184, 0.184, 0.983, -40.938, 19.762)"/><path class="d" d="M110.887,266.018l-24.081,4.5c-3.64.68-7.276,1.455-10.932,2.044a2.741,2.741,0,0,1-3.322-2.255c-.1-.441-.166-.888-.249-1.331l-4.256-22.766L62.09,214.342l-2.151-11.511a31.484,31.484,0,0,1-.817-4.591c-.059-1.843,1.452-2.527,2.983-2.814l4.3-.8,15.331-2.865,13.191-2.466a8.319,8.319,0,0,1,2.668-.35c1.437.224,2.022,1.434,2.267,2.707,1.276,6.637,2.484,13.289,3.726,19.933l6,32.1,2.389,12.776c.4,2.129.9,4.268,1.2,6.414a2.719,2.719,0,0,1-2.286,3.145c-3.014.669-1.739,5.3,1.276,4.628a7.527,7.527,0,0,0,5.679-8.831c-.095-.552-.206-1.1-.309-1.653l-1.793-9.594-6-32.1-4.852-25.955c-.144-.768-.28-1.538-.431-2.3a7.507,7.507,0,0,0-5.11-5.756,10.332,10.332,0,0,0-5.09.094l-5.275.987-28.189,5.269a7.631,7.631,0,0,0-5.734,4.155,8.5,8.5,0,0,0-.462,5.334l1.447,7.738L61.8,238.843l5.289,28.3a32.269,32.269,0,0,0,1.118,5.422,7.557,7.557,0,0,0,8.657,4.683c1.163-.2,2.322-.434,3.482-.651l29.477-5.51,2.337-.437a2.421,2.421,0,0,0,1.676-2.952A2.451,2.451,0,0,0,110.887,266.018Z"/><path class="a" d="M61.035,244.559l-.061-1.361c8.563-5.244,27.08-16.3,29.724-17.823,1.52-.876,5.089-1.865,7.028.278a4.087,4.087,0,0,1,1.2,3.937c.406-.1.647-.164.647-.164,2.782-.688,4.889-.056,6.136,1.6a4.729,4.729,0,0,1,.644,4.948,15.55,15.55,0,0,1-4.153,4.834c-.512.41-1.957,1.486-3.914,2.923l1.74-.264a3.051,3.051,0,0,1,3.564,2.651,4.216,4.216,0,0,1-.045,2.425,8.4,8.4,0,0,1-2.316,3.149c-.221.212-.744.64-1.486,1.223l1.909,1.782a2.9,2.9,0,0,1,.767,2.489,5.424,5.424,0,0,1-.964,2.521A79.223,79.223,0,0,1,83.01,277.1a25.664,25.664,0,0,1-9.81,4.571,43.207,43.207,0,0,1-10.5.1Z"/><path class="d" d="M68.156,204.293q2.967-.555,5.934-1.113a2.418,2.418,0,0,0,1.434-1.1,2.4,2.4,0,0,0-.861-3.283,2.683,2.683,0,0,0-1.849-.242l-5.934,1.112a2.424,2.424,0,0,0-1.435,1.1,2.456,2.456,0,0,0-.242,1.85,2.429,2.429,0,0,0,1.1,1.434,2.691,2.691,0,0,0,1.85.242Z"/><path class="d" d="M62.185,245.271q13.855-8.481,27.856-16.727c1.445-.854,2.448-1.617,4.014-1.76a2.766,2.766,0,0,1,1.419.14,1.96,1.96,0,0,1,.94.958c.18.363.38.612.26.972a4.475,4.475,0,0,1-1.061,1.162c-.23.194-.467.38-.7.566-.153.122-.307.241-.461.362-.207.162.112-.086.124-.1l-.388.3q-1.289.986-2.592,1.951-3.3,2.457-6.643,4.861c-4.718,3.409-9.443,6.821-14.277,10.063-2.553,1.712-.153,5.872,2.422,4.145,4.615-3.095,9.128-6.349,13.634-9.6,4.138-2.985,8.429-5.891,12.324-9.195,3.043-2.58,3.046-6.587.37-9.417-2.594-2.741-6.918-2.313-9.968-.634-3.949,2.174-7.776,4.606-11.643,6.92-6.03,3.606-12.057,7.217-18.05,10.885-2.63,1.61-.221,5.763,2.423,4.145Z"/><path class="d" d="M100.211,231.74c1.572-.356,3.214-.288,3.947,1.334.866,1.917-1.217,3.825-2.481,5.015-.378.356-.788.674-1.174,1.021-.346.312.224-.168.156-.118-.281.21-.558.425-.839.635q-1.258.943-2.529,1.872-7.519,5.528-15.1,10.964c-1.977,1.421-3.95,2.851-5.949,4.241a2.462,2.462,0,0,0-.861,3.283,2.419,2.419,0,0,0,3.283.861c4.976-3.46,9.863-7.053,14.767-10.615q3.832-2.784,7.648-5.593c2.626-1.943,5.306-3.918,7-6.792a7.345,7.345,0,0,0-.962-8.873c-2.157-2.268-5.269-2.521-8.174-1.864-3.011.682-1.737,5.311,1.276,4.629Z"/><path class="d" d="M100.026,245.866a3.311,3.311,0,0,1,.744-.035.636.636,0,0,1,.166.075c-.175-.072.062.075.095.124-.219-.331-.033-.008.008.053.018.026.188.345.063.087s.043.113.058.17a2.666,2.666,0,0,1-.781,2.8,24.638,24.638,0,0,1-3.166,2.726l.1-.076-.326.251-.514.394q-.65.5-1.3.99-1.454,1.1-2.914,2.2-2.98,2.24-5.973,4.467-2.7,2.016-5.411,4.032a2.477,2.477,0,0,0-.861,3.284,2.419,2.419,0,0,0,3.284.861c4.118-3.078,8.249-6.137,12.355-9.23,1.941-1.463,3.882-2.927,5.792-4.43a12.848,12.848,0,0,0,4.3-5.143c1.57-3.86-1.31-8.893-5.712-8.4a2.472,2.472,0,0,0-2.4,2.4,2.415,2.415,0,0,0,2.4,2.4Z"/><path class="d" d="M99.955,256.393c.816.888-1.34,3.086-1.813,3.666q-2.025,2.482-4.257,4.786a77.522,77.522,0,0,1-9.5,8.332c-3.388,2.514-7,5.12-11.184,6.052a33.892,33.892,0,0,1-10.5.151,2.413,2.413,0,0,0-2.4,2.4,2.459,2.459,0,0,0,2.4,2.4,40.736,40.736,0,0,0,9.752.009,25.27,25.27,0,0,0,10.68-4.28,81.727,81.727,0,0,0,17.3-15.133c1.462-1.711,3.194-3.488,3.974-5.628A5.894,5.894,0,0,0,103.349,253c-2.094-2.28-5.482,1.121-3.394,3.394Z"/><path class="d" d="M40.35,261.451a47.432,47.432,0,0,0,8.175,15.12c3.468,4.472,7.668,8.7,12.749,11.307,2.743,1.41,5.174-2.731,2.422-4.144-4.543-2.334-8.282-6.08-11.4-10.072a42.252,42.252,0,0,1-7.317-13.487c-.891-2.949-5.526-1.693-4.628,1.276Z"/></svg>