<svg xmlns="http://www.w3.org/2000/svg" width="228.806" height="308.173" viewBox="0 0 228.806 308.173"><defs><style>.a{fill:#fff;}.b{fill:#957f6e;}.c{fill:#b3b3b3;}.d{fill:#211715;}</style></defs><path class="a" d="M146.89,170.162l.42.11c-3.59,13.9-7.67,27.93-11.95,41.08-4.74,14.56-6.3,19.51-12.37,34.48h-1.96c-6.07-14.97-7.63-19.92-12.37-34.48-4.29-13.15-8.36-27.18-11.95-41.08l.41-.11a55.53,55.53,0,0,0,24.88,4.98A55.545,55.545,0,0,0,146.89,170.162Z"/><path class="b" d="M60.318,81.151c0,19.861-1.629,34.184-3.91,42.328a96.225,96.225,0,0,0-2.931,20.512c-.068,8.223,7.818,17.143,19.939,16.85l94.443-2.266c13.234,4.746,24.745-7.247,24.661-16.509a45.294,45.294,0,0,0-2.859-15.5c-2.355-6.818-6.917-20.668-7.246-45.413.655-7.489-.026-18.308-.322-22.466-1.026-14.415-7.471-30.512-16.745-39.458a60.427,60.427,0,0,0-6.936-5.942l-9.906-5.734A67.323,67.323,0,0,0,121.584,2.4c-18.547,0-35.055,9.555-42.38,16.568C67.052,30.6,59.343,51.848,60.315,81.152"/><path class="a" d="M140.867,172.514a56.747,56.747,0,0,1-18.862,2.632,55.342,55.342,0,0,1-25.4-5.231c-1.433-5.55-2.787-11.078-4.046-16.52a23.99,23.99,0,0,0,6.046-3.449,9.453,9.453,0,0,0,2.814-4.106,13.774,13.774,0,0,0,.662-3.845c.194-2.619.142-3.491.172-5.417-5.419-2.37-10.223-6.4-14.774-11.935a55.335,55.335,0,0,1-10.3-19.791,7.735,7.735,0,0,1-6.608-1.7c-3.812-3.171-5.382-7.579-6.339-10.461-1.352-4.068-1.413-10.636.638-14.192a6.668,6.668,0,0,1,6.009-3.336,7.266,7.266,0,0,1,4.472,1.341l2.652-1.235c3.072-1.431,11.625-5.139,12.87-5.875a113.3,113.3,0,0,0,10.54-7c1.163-.269,1.8-.413,1.8-.413,13.73-3.1,32.913-13.828,38.276-21.595,2.083,6.529,3.4,12.436,10.4,21.878,4.575,6.164,10.449,10.037,13.9,12.721l2.716,2.112a7.2,7.2,0,0,1,4.782-1.536,6.667,6.667,0,0,1,5.982,3.384c2.024,3.571,1.912,10.138.529,14.2-.979,2.874-2.583,7.269-6.419,10.411a7.677,7.677,0,0,1-6.813,1.592,55.291,55.291,0,0,1-10.215,19.494,37.38,37.38,0,0,1-13.492,10.9c.031,2.728-.049,3.411.161,6.457a13.774,13.774,0,0,0,.662,3.845,9.453,9.453,0,0,0,2.814,4.106,22.593,22.593,0,0,0,5.05,3.019c-1.284,5.575-2.672,11.249-4.142,16.946A51.777,51.777,0,0,1,140.867,172.514Z"/><path class="c" d="M21.749,293.069c3.264,5.39,8.082,9.877,14.246,11.59,8.562,2.38,20.356,1.262,26.771-6.613.083,2.063.162,4.008.233,5.8l163.251,0q-.162-2.055-.317-4.022c-3.951-50.112-4.791-58.595-7.408-81.693-1.484-13.1-4.931-24.555-10.486-32.994-9.8-14.883-26.712-21.428-46.273-31.129l-4.6-.766c-1.777-1.32-3.467-2.48-4.9-3.4-4.554,20.22-10.5,41.843-16.906,61.5-4.743,14.567-6.3,19.51-12.373,34.485h-1.957c-6.068-14.975-7.63-19.918-12.374-34.485-6.4-19.661-12.351-41.284-16.9-61.5a94.944,94.944,0,0,0-8.981,6.591c-17.439,8.454-32.352,15.091-41.3,28.7-3.917,5.953-7.017,14.811-9.1,22.46L10.914,217.774c.611,12.174,1.288,21.392,2.158,32.107.55,6.775,1.133,13.555,2.044,20.293a75.827,75.827,0,0,0,3.336,15.692A35.056,35.056,0,0,0,21.749,293.069Z"/><path class="d" d="M62.715,81.152c-.573-18.095,1.7-37.758,12.03-53.146A47.021,47.021,0,0,1,90.237,13.8a63.352,63.352,0,0,1,28.276-8.917,67.1,67.1,0,0,1,17.819,1.361,65.376,65.376,0,0,1,7.285,2.032c1.213.414,2.407.874,3.6,1.333.1.038.595.3.112.039.152.081.3.17.45.255l.9.51c2.691,1.524,5.113-2.621,2.422-4.145a46.332,46.332,0,0,0-11.7-4.236A73.163,73.163,0,0,0,123.232.01,67.308,67.308,0,0,0,91.415,7.675,54.711,54.711,0,0,0,72.6,22.81,66.695,66.695,0,0,0,61.771,45.291c-3.3,11.609-4.237,23.837-3.856,35.861.1,3.081,4.9,3.095,4.8,0Z"/><path class="d" d="M184.815,81.152a119.77,119.77,0,0,0,.1-15.062,120.389,120.389,0,0,0-1.082-13.116A68.092,68.092,0,0,0,172.1,23.443a56.039,56.039,0,0,0-12.48-12.229,2.418,2.418,0,0,0-3.284.861,2.452,2.452,0,0,0,.861,3.283,51.861,51.861,0,0,1,17.453,22.559,71.515,71.515,0,0,1,4.293,14.757,95.709,95.709,0,0,1,1.116,12.191,124.32,124.32,0,0,1-.047,16.287,2.419,2.419,0,0,0,2.4,2.4,2.45,2.45,0,0,0,2.4-2.4Z"/><path class="d" d="M57.918,81.151c-.006,7.741-.229,15.489-.885,23.205a114.265,114.265,0,0,1-2.275,15.857c-.572,2.5-1.292,4.958-1.786,7.48-.69,3.519-1.2,7.081-1.553,10.65a32.039,32.039,0,0,0-.047,8.737,17.622,17.622,0,0,0,3.183,7.235,22.676,22.676,0,0,0,18.861,8.926c3.086-.048,3.095-4.849,0-4.8-5.577.089-11.113-1.964-14.63-6.437a13.966,13.966,0,0,1-2.76-6.064,7.727,7.727,0,0,1-.142-1.406c-.022-.649,0-1.3.029-1.948.06-1.48.177-2.958.325-4.431q.483-4.808,1.435-9.552c.48-2.4,1.17-4.734,1.713-7.114A120.209,120.209,0,0,0,61.7,105.816c.761-8.2,1.009-16.436,1.015-24.665,0-3.088-4.8-3.093-4.8,0Z"/><path class="d" d="M180.015,81.152c.191,13.176,1.522,26.48,5.146,39.187,1.328,4.657,3.2,9.169,4.181,13.92A37.812,37.812,0,0,1,190.06,140a17.728,17.728,0,0,1-.15,4.191,15.49,15.49,0,0,1-3.364,6.725c-4.5,5.367-11.346,7.676-18.049,5.347-2.924-1.016-4.181,3.619-1.276,4.628a20.585,20.585,0,0,0,19.909-3.818,20.315,20.315,0,0,0,7.759-16.4,47.939,47.939,0,0,0-2.183-12.528c-.637-2.049-1.379-4.064-2.024-6.111a116.67,116.67,0,0,1-3.549-14.524,162.709,162.709,0,0,1-2.318-26.36c-.045-3.086-4.845-3.095-4.8,0Z"/><path class="d" d="M113.45,115.466a18.789,18.789,0,0,0,9.045,2.1,14.725,14.725,0,0,0,9.14-2.7,2.4,2.4,0,0,0,0-3.394,2.475,2.475,0,0,0-3.394,0c.731-.569.175-.142-.013-.022s-.367.223-.557.323c-.1.052-.2.1-.3.149-.341.176-.053-.1.108-.037-.107-.042-.644.24-.769.28a13.658,13.658,0,0,1-2.152.491c.359-.054-.033,0-.189.016q-.316.031-.635.052c-.509.033-1.019.046-1.529.043q-.686,0-1.37-.05-.314-.021-.627-.052c-.037,0-.792-.119-.288-.03a17.719,17.719,0,0,1-2.01-.447c-.282-.084-.556-.185-.834-.28-.609-.208.367.188-.183-.071-.344-.163-.684-.332-1.021-.51a2.4,2.4,0,0,0-2.423,4.145Z"/><path class="d" d="M121.249,94.191a42.5,42.5,0,0,1,1,4.555l-.086-.638a2.7,2.7,0,0,1,.017.629l.086-.638a1.518,1.518,0,0,1-.069.283l.242-.573a1.15,1.15,0,0,1-.1.182l.375-.486a.942.942,0,0,1-.149.147l.486-.376a2.894,2.894,0,0,1-.361.191l.574-.242a2.643,2.643,0,0,1-.609.178l.638-.086a2.415,2.415,0,0,1-.57,0l.638.086c-.216-.03-.427-.083-.642-.112a1.812,1.812,0,0,0-.957-.042,1.786,1.786,0,0,0-.893.284,2.4,2.4,0,0,0-.861,3.284,2.3,2.3,0,0,0,1.435,1.1c.5.067.976.193,1.481.215a4.735,4.735,0,0,0,2.189-.522,3.172,3.172,0,0,0,1.755-2.091,5.211,5.211,0,0,0-.022-2.244c-.248-1.468-.587-2.923-.964-4.362a2.4,2.4,0,0,0-4.629,1.276Z"/><path class="d" d="M97.222,81.272c-.76,2.472-.264,8.16,4.419,8.644,6.191-.037,6.52-6.913,4.436-10.146C104.371,77.123,99.354,76.022,97.222,81.272Z"/><path class="d" d="M146.8,81.272c.761,2.473.265,8.16-4.418,8.644-6.191-.038-6.521-6.914-4.437-10.147C139.647,77.123,144.664,76.022,146.8,81.272Z"/><path class="d" d="M114.789,45.226a61.246,61.246,0,0,1-14.748,15.222,111.757,111.757,0,0,1-9.627,6.428,53.11,53.11,0,0,1-5.649,2.743c-2.657,1.192-5.33,2.353-7.972,3.579a2.421,2.421,0,0,0-.861,3.284,2.457,2.457,0,0,0,3.284.861c4.243-1.97,8.741-3.584,12.834-5.854A88.089,88.089,0,0,0,110.93,57.4a58.911,58.911,0,0,0,8-9.746c1.692-2.6-2.462-5-4.144-2.423Z"/><path class="d" d="M139.574,38.955q-.18.266-.367.527c-.248.344.1-.109-.178.231-.365.441-.742.87-1.137,1.285a34.153,34.153,0,0,1-2.516,2.371,58.14,58.14,0,0,1-6.517,4.752,95.106,95.106,0,0,1-16.7,8.537,68.414,68.414,0,0,1-9.581,3.013c-3.01.69-1.736,5.319,1.276,4.629a82.921,82.921,0,0,0,18.235-6.845,83.492,83.492,0,0,0,15.991-10.114,28.447,28.447,0,0,0,5.636-5.964c1.729-2.57-2.428-4.976-4.144-2.422Z"/><path class="d" d="M167.494,73.293c-2.476-1.917-5.027-3.732-7.39-5.791a46.781,46.781,0,0,1-8.058-9.153,52.383,52.383,0,0,1-5.091-9.249c-1.089-2.631-1.907-5.362-2.752-8.078-.914-2.94-5.549-1.686-4.628,1.276,2.04,6.559,4.452,12.746,8.326,18.474a51.529,51.529,0,0,0,8.52,9.871c1.417,1.251,2.9,2.423,4.4,3.572.588.451,1.181.9,1.775,1.341.439.329,1.331,1,1.5,1.131a2.481,2.481,0,0,0,3.394,0,2.415,2.415,0,0,0,0-3.394Z"/><path class="d" d="M73.965,101.922a58.462,58.462,0,0,0,8.084,19.356c4.121,6.293,9.548,12.2,16.141,15.939a32.067,32.067,0,0,0,10.953,3.825,2.478,2.478,0,0,0,2.953-1.676,2.419,2.419,0,0,0-1.677-2.953c-13.6-2.083-23.712-14-28.8-26.12a56.167,56.167,0,0,1-3.026-9.647c-.665-3.016-5.294-1.74-4.629,1.276Z"/><path class="d" d="M165.248,100.646a53.612,53.612,0,0,1-10,21.575,40.52,40.52,0,0,1-8.417,8.268,37.506,37.506,0,0,1-9.981,4.821c-2.924.953-1.672,5.589,1.276,4.628a40.841,40.841,0,0,0,16.363-9.663,56.569,56.569,0,0,0,12.362-18.706,57.753,57.753,0,0,0,3.026-9.647c.664-3.011-3.962-4.3-4.628-1.276Z"/><path class="d" d="M169.785,79.163a5.078,5.078,0,0,1,4.444-1.09,4.73,4.73,0,0,1,1.989.864c-.131-.1.9,1.046.606.622,1.7,2.423,1.747,5.865,1.524,8.713a22.388,22.388,0,0,1-2.589,8.46c-1.441,2.758-4.223,6.774-7.854,6.266a2.482,2.482,0,0,0-2.952,1.677,2.417,2.417,0,0,0,1.676,2.952c8.473,1.184,13.389-7.166,15.588-14.137a24.555,24.555,0,0,0,.718-10.812c-.444-3.034-1.636-5.972-4.189-7.807a10.08,10.08,0,0,0-12.355.9c-2.3,2.073,1.1,5.459,3.394,3.394Z"/><path class="d" d="M77.77,75.407a10.179,10.179,0,0,0-11.255-1.62,9.879,9.879,0,0,0-4.993,6.722C59.8,87.152,61.437,94.73,65.1,100.46c2.506,3.924,6.593,7.554,11.582,6.9a2.479,2.479,0,0,0,2.4-2.4c0-1.165-1.106-2.571-2.4-2.4-4,.527-6.688-2.915-8.358-6.114a22.416,22.416,0,0,1-2.591-8.632c-.2-2.839-.137-6.3,1.6-8.7-.3.412.739-.7.617-.611a4.708,4.708,0,0,1,2-.844A5.1,5.1,0,0,1,74.376,78.8c2.274,2.084,5.677-1.3,3.394-3.394Z"/><path class="d" d="M92.882,155.845c3.784-1.564,7.883-3.542,9.927-7.295,1.846-3.389,1.812-7.364,1.839-11.129a2.4,2.4,0,1,0-4.8,0c-.009,1.328-.033,2.651-.121,3.976a20.322,20.322,0,0,1-.242,2.45,8.758,8.758,0,0,1-.329,1.223c-.03.083-.226.551-.1.268-.086.192-.178.381-.274.568a7.338,7.338,0,0,1-2.85,3.04,27.631,27.631,0,0,1-4.326,2.271,2.48,2.48,0,0,0-1.677,2.952,2.415,2.415,0,0,0,2.953,1.676Z"/><path class="d" d="M140.476,137.421c0,3.5-.008,7.185,1.472,10.416,1.611,3.518,4.991,5.65,8.4,7.2a2.458,2.458,0,0,0,3.283-.861,2.427,2.427,0,0,0-.861-3.283,24.5,24.5,0,0,1-4.276-2.427,6.868,6.868,0,0,1-2.4-3.052c-.17-.364.1.281-.043-.1-.083-.213-.16-.428-.224-.647a9.044,9.044,0,0,1-.269-1.238,2.408,2.408,0,0,1-.037-.338c-.015-.184-.034-.369-.049-.553-.039-.46-.07-.921-.1-1.383-.074-1.245-.1-2.489-.1-3.736a2.4,2.4,0,0,0-4.8,0Z"/><path class="d" d="M163.379,157.4c6.611,3.228,13.3,6.315,19.767,9.833a77.855,77.855,0,0,1,15.834,10.819c10.235,9.447,14.721,22.757,16.784,36.221,1.152,7.524,1.8,15.164,2.571,22.736s1.458,15.171,2.1,22.763c1.069,12.527,2.059,25.06,3.049,37.593q.256,3.24.511,6.479a2.46,2.46,0,0,0,2.4,2.4,2.419,2.419,0,0,0,2.4-2.4c-1.071-13.607-2.141-27.215-3.284-40.817-.675-8.027-1.38-16.052-2.184-24.068q-1.055-10.533-2.282-21.051c-1.656-14.3-5.582-29.058-15.441-39.984-9.27-10.274-22.316-16.212-34.554-22.122q-2.628-1.269-5.253-2.547a2.462,2.462,0,0,0-3.284.861,2.423,2.423,0,0,0,.861,3.284Z"/><path class="d" d="M34.834,208.233c2.31-8.466,5.169-17.266,10.566-24.318,4.943-6.46,11.662-11.235,18.658-15.236,4.446-2.543,9.04-4.812,13.646-7.047a2.422,2.422,0,0,0,.861-3.283,2.451,2.451,0,0,0-3.284-.861c-8.173,3.965-16.39,8.046-23.615,13.613A51.37,51.37,0,0,0,35.68,191.2a112.188,112.188,0,0,0-5.475,15.761c-.814,2.985,3.815,4.258,4.629,1.276Z"/><path class="d" d="M184.866,211.457c-.2,12.605-.631,25.193-1.207,37.785q-.81,17.709-1.563,35.419-.409,9.589-.8,19.181c-.123,3.089,4.677,3.084,4.8,0q.715-17.9,1.521-35.8c.5-11.263,1.07-22.523,1.483-33.789.278-7.595.444-15.193.565-22.792.049-3.089-4.751-3.09-4.8,0Z"/><path class="d" d="M57.18,211.457c.2,12.605.631,25.193,1.207,37.785q.809,17.709,1.563,35.419.409,9.589.8,19.181c.122,3.079,4.923,3.094,4.8,0q-.716-17.9-1.521-35.8c-.5-11.263-1.07-22.523-1.483-33.789-.278-7.595-.444-15.193-.565-22.792-.049-3.085-4.85-3.095-4.8,0Z"/><path class="d" d="M95.908,172.23a61.356,61.356,0,0,0,26.1,5.316,61.351,61.351,0,0,0,26.1-5.316,2.417,2.417,0,0,0,.861-3.283,2.456,2.456,0,0,0-3.284-.861c-7.5,3.453-15.477,4.66-23.673,4.66s-16.169-1.207-23.674-4.66a2.47,2.47,0,0,0-3.284.861,2.419,2.419,0,0,0,.861,3.283Z"/><path class="d" d="M8.663,217.774q.692,13.72,1.783,27.413c.756,9.614,1.561,19.219,2.937,28.767,1.142,7.924,3.219,16.158,8.032,22.7a28.77,28.77,0,0,0,8.773,8.087,27.476,27.476,0,0,0,10.77,3.231c8.345.917,17.575-1.338,23.292-7.8,2.04-2.307-1.343-5.714-3.394-3.394-4.522,5.114-11.406,6.886-18.038,6.546a23.271,23.271,0,0,1-9.242-2.206,22.978,22.978,0,0,1-7.871-6.685c-4.534-5.987-6.456-13.559-7.562-20.868-1.339-8.848-2.053-17.775-2.763-26.69q-1.16-14.54-1.917-29.1c-.155-3.074-4.956-3.092-4.8,0Z"/><path class="a" d="M54.892,185.39c-.817,4.964-4.678,10.8-6.552,13.237a21.139,21.139,0,0,1-2.431,2.723c-1.913,1.754-1.7,4.175-2.113,6.91-.223,1.491-.094,2.854-.2,3.927-5.3,1.755-19.982,2.778-26.8,3.336a104.619,104.619,0,0,0-5.3-12.5c-4.143-4.249-8.775-14.554-9.061-24.409l.249-3.637c.09-1.3,1.2-4.925,3.851-5.56a5.088,5.088,0,0,1,5.408,2.21l.747-3.223a5.817,5.817,0,0,1,4.805-3.988c2.216-.305,3.052,1.108,4.137,2.63.041-1.88.864-4.066,2.6-4.936,2.663-1.338,7.832-1.286,7.635,4.657-1.207-10.149-2.52-22.533-2.5-25.293a6.555,6.555,0,0,1,5.644-6.1c3.071-.3,6.18,4.257,6.494,6.245,1.5,9.525,2.361,16.418,3.459,27.953,1.756.462,3.428.974,5.3,1.53a7.1,7.1,0,0,1,3.592,3.032c1.665,3.836,2.206,7.214,1.048,11.249"/><path class="d" d="M47.266,168.677c-.744-7.722-1.617-15.426-2.755-23.1a37.724,37.724,0,0,0-.819-5.067,11.717,11.717,0,0,0-2.118-3.833c-2.188-2.794-5.4-4.564-8.924-3.156a9,9,0,0,0-5.694,8.129c-.008,1.484.165,2.983.293,4.46.46,5.317,1.05,10.624,1.654,15.927.639,5.614,1.292,11.229,2.085,16.824a2.415,2.415,0,0,0,2.952,1.676,2.463,2.463,0,0,0,1.676-2.952q-.075-.53-.147-1.06c-.027-.2-.078-.574-.021-.151-.038-.283-.075-.566-.113-.848q-.2-1.5-.383-3-.463-3.7-.894-7.412c-.593-5.08-1.16-10.163-1.659-15.253-.188-1.913-.37-3.827-.511-5.744-.1-1.284-.372-2.8.212-3.989a4.239,4.239,0,0,1,2.661-2.275,1.844,1.844,0,0,1,.9-.039,4.475,4.475,0,0,1,1.366.949,9.124,9.124,0,0,1,1.952,2.759,22.8,22.8,0,0,1,.7,3.964c1.166,7.7,2.041,15.434,2.788,23.186a2.467,2.467,0,0,0,2.4,2.4,2.417,2.417,0,0,0,2.4-2.4Z"/><path class="d" d="M14,170.4a7.18,7.18,0,0,0-4.2-3.011,7.794,7.794,0,0,0-5.049.556,8.679,8.679,0,0,0-4.335,6.044,20.938,20.938,0,0,0,.514,8.548A11.62,11.62,0,0,0,2.992,187.3a6.858,6.858,0,0,0,3.731,2.243c3.463.716,6.765-1.427,8.349-4.437a2.453,2.453,0,0,0-.861-3.284,2.425,2.425,0,0,0-3.283.861,8.653,8.653,0,0,1-.656,1.09c.269-.367-.084.056-.205.182-.07.072-.148.136-.223.2.178-.162.157-.1-.022.013a8.916,8.916,0,0,1-1.33.75c.387-.165.011-.059-.168.007.054-.02.407,0,.147-.021a3.362,3.362,0,0,0-.4.007c-.272.006.093.032.132.037a3.781,3.781,0,0,1-.405-.084c-.152-.039-.589-.2-.216-.038-.2-.087-.372-.2-.56-.3-.024-.013-.31-.217-.1-.061s-.133-.129-.166-.161c-.078-.074-.151-.154-.224-.233.028.03.2.286.042.057-.058-.086-.331-.556-.249-.388.129.263-.083-.231-.083-.233-.072-.206-.145-.412-.213-.619-.114-.348-.22-.7-.318-1.05a17.709,17.709,0,0,1-.673-6.025c.009-.21.023-.42.033-.63.027-.579.088,0-.028.08a5.251,5.251,0,0,0,.287-1.045c.118-.419-.171.3.04-.106.09-.173.172-.35.269-.521s.214-.342.318-.515c.018-.029.221-.3.056-.089s.11-.12.144-.154c.1-.1.193-.2.292-.3.036-.035.368-.3.158-.147s.074-.041.1-.053c.126-.063.244-.142.37-.2-.383.19.212-.045.367-.079a3.639,3.639,0,0,1,.388-.075c-.262.03.021.011.122.014.122,0,.248,0,.371,0,.392,0-.3-.074.082,0,.117.022.231.057.348.079.61.115-.106-.093.2.052.1.05.647.4.418.22a3.5,3.5,0,0,1,.275.256c.035.036.339.4.211.22a2.469,2.469,0,0,0,3.283.861A2.417,2.417,0,0,0,14,170.4Z"/><path class="d" d="M23.7,165.834a9.123,9.123,0,0,0-3.259-3.313,6.725,6.725,0,0,0-5.663.235,8.427,8.427,0,0,0-3.493,3,9.881,9.881,0,0,0-1.32,4.313,30.9,30.9,0,0,0,.484,11.078,13.23,13.23,0,0,0,1.3,3.7,7.576,7.576,0,0,0,4.345,3.252,7.409,7.409,0,0,0,5.889-.885c1.431-.838,3.172-2.223,3.433-3.98a2.48,2.48,0,0,0-1.676-2.953,2.42,2.42,0,0,0-2.953,1.677c-.058.252-.034.251.07,0q-.216.336-.028.1c-.193.187-.366.393-.575.564a6.958,6.958,0,0,1-1.436.84c.317-.13-.35.111-.393.118a2.436,2.436,0,0,1-.728-.018,2.979,2.979,0,0,1-1.48-.751,1.7,1.7,0,0,1-.441-.6c-.235-.423.123.411-.061-.148s-.361-1.08-.5-1.635a23.449,23.449,0,0,1-.658-4.079,27.336,27.336,0,0,1,.082-5.243,17.9,17.9,0,0,1,.413-2.216c.125-.5-.254.364.046-.134.041-.07.481-.769.244-.457a3.545,3.545,0,0,1,2.5-1.506c.361-.037.181,0,.515.035-.156-.019.11.075.132.093a6.059,6.059,0,0,1,1.077,1.344,2.468,2.468,0,0,0,3.284.861,2.42,2.42,0,0,0,.861-3.284Z"/><path class="d" d="M32.539,161.247c-2.269-2.659-6.237-2.7-9.214-1.351-3.017,1.365-4.338,5.023-4.055,8.147.312,3.452.852,6.9,1.468,10.308.284,1.571.442,3.078,1.579,4.292a8.306,8.306,0,0,0,4.3,2.348,7.444,7.444,0,0,0,6.14-1.442,11.3,11.3,0,0,0,2.362-3.209c1.6-2.652-2.55-5.068-4.145-2.423-.26.432-.508.874-.753,1.314-.07.114-.142.226-.218.335q.264-.317,0,0c-.076.078-.686.573-.342.346a2.941,2.941,0,0,1-2.886.1,6.553,6.553,0,0,0-.644-.366,4.539,4.539,0,0,1-.347-.318q-.291-.326-.006.02-.2-.366.055.155l-.108-.532c-.076-.379-.149-.76-.22-1.14-.3-1.6-.568-3.21-.811-4.821-.221-1.468-.419-2.938-.571-4.414a9.336,9.336,0,0,1-.068-2.086c-.034.279.138-.569.169-.674a2.339,2.339,0,0,1,.264-.671,1.874,1.874,0,0,1,.716-.854,4.254,4.254,0,0,1,.435-.224q-.317.138.095-.018a6.9,6.9,0,0,1,.979-.245c-.319.051.554-.022.659-.02a1.422,1.422,0,0,1,.652.082,1.661,1.661,0,0,1,1.12.755,2.421,2.421,0,0,0,3.394,0,2.449,2.449,0,0,0,0-3.394Z"/><path class="d" d="M44.946,180.064c-1.165-.483-2.324-.985-3.461-1.533a13.407,13.407,0,0,1-3.159-1.8,4.67,4.67,0,0,1-1.367-2.489,2.481,2.481,0,0,1,.271-1.815c.686-1.076,2.405-1.485,3.959-1.264a48.856,48.856,0,0,1,7.987,2.123c4.321,1.4,4.571,7.172,3.53,11.013a39.153,39.153,0,0,1-6.148,12.731c-1.652,2.243-3.9,3.741-4.548,6.607a59.25,59.25,0,0,0-.814,8.554l1.762-2.314c-3.952,1.276-8.262,1.62-12.37,2.049-4.592.48-9.195.826-13.8,1.2l2.315,1.762a85.827,85.827,0,0,0-5.041-12.167c-.852-1.72-2.307-2.987-3.319-4.619A41.717,41.717,0,0,1,4.8,177.706c-.029-3.087-4.829-3.094-4.8,0a45.825,45.825,0,0,0,5.455,20.818,31.2,31.2,0,0,0,2.233,3.626c.438.6.9,1.2,1.379,1.773.176.206.352.42.545.611.468.463-.158-.409-.075-.123a14.35,14.35,0,0,0,.89,1.8c.484,1.047.948,2.1,1.4,3.165a72.49,72.49,0,0,1,2.647,6.788,2.438,2.438,0,0,0,2.314,1.762c4.718-.385,9.439-.74,14.147-1.238,4.4-.466,9.057-.815,13.3-2.184A2.5,2.5,0,0,0,46,212.187c.111-1.444.071-2.875.255-4.315a13.858,13.858,0,0,1,.665-3.921c.459-1.015,1.6-1.769,2.3-2.61a31.667,31.667,0,0,0,2.37-3.193,50.055,50.055,0,0,0,4.09-7.855,27.41,27.41,0,0,0,2.437-9.3,14.568,14.568,0,0,0-2.292-8.409c-1.854-2.7-4.468-3.691-7.487-4.58-2.824-.832-6.035-1.957-9.011-1.643a7.892,7.892,0,0,0-6.5,4.125c-1.441,3.023-.528,6.468,1.514,8.98,2.188,2.692,6.227,3.943,9.325,5.227a2.414,2.414,0,0,0,2.953-1.676,2.461,2.461,0,0,0-1.677-2.952Z"/><path class="d" d="M108.117,245.267c-10.915-18.918-21.7-37.924-31.765-57.313-.7-1.34-1.4-2.676-2.075-4.027a.661.661,0,0,1-.074-.214c0,.266-.017.135.337-.26.526-.588,1.083-1.152,1.632-1.718,2.2-2.272,4.5-4.451,6.81-6.616a2.422,2.422,0,0,0-.486-3.77l-4.15-2.369-1.868-1.066-1.037-.592-.415-.237q-.69-.459-.247-.077l.327,1.211c-.013.3.1-.136.171-.242.124-.195.229-.405.349-.6.231-.377.477-.744.733-1.1a23.342,23.342,0,0,1,1.654-2.034,54.943,54.943,0,0,1,4.923-4.8,86.27,86.27,0,0,1,10.028-7.519l-3.526-1.434a704.185,704.185,0,0,0,22.327,77.831c2.144,6.118,4.519,12.15,6.951,18.158a2.477,2.477,0,0,0,2.953,1.676,2.417,2.417,0,0,0,1.676-2.952c-9.578-23.653-17.133-48.16-23.617-72.827q-3.03-11.531-5.662-23.162a2.417,2.417,0,0,0-3.525-1.434A81.744,81.744,0,0,0,75.56,159.822a38.554,38.554,0,0,0-3.076,3.652,10.478,10.478,0,0,0-2.116,3.987c-.477,2.623,2.032,3.653,3.9,4.716l5.811,3.317-.486-3.77c-2.193,2.057-4.374,4.127-6.478,6.276-1.907,1.949-4.38,4.042-3.512,7.086a21.174,21.174,0,0,0,1.773,3.675q1.047,2.028,2.105,4.05,1.932,3.694,3.9,7.369c5.5,10.283,11.17,20.472,16.923,30.614q4.8,8.467,9.674,16.9c1.543,2.675,5.692.261,4.145-2.423Z"/><path class="d" d="M140.047,247.69c11.518-19.965,22.906-40.026,33.428-60.538.759-1.48,1.432-2.912.958-4.606-.44-1.576-1.766-2.725-2.862-3.864-2.306-2.394-4.717-4.684-7.14-6.958l-.486,3.77,5.811-3.317c1.8-1.029,4.1-1.928,3.937-4.4-.1-1.526-1.269-3.1-2.159-4.306a38.4,38.4,0,0,0-3.075-3.652,81.778,81.778,0,0,0-14.981-12.049,2.418,2.418,0,0,0-3.526,1.434,703.967,703.967,0,0,1-22.327,77.831c-2.143,6.118-4.518,12.15-6.951,18.158a2.415,2.415,0,0,0,1.676,2.952,2.459,2.459,0,0,0,2.952-1.676c9.578-23.653,17.133-48.16,23.617-72.827q3.031-11.531,5.662-23.162l-3.526,1.434a86.27,86.27,0,0,1,10.028,7.519,55.4,55.4,0,0,1,4.81,4.673,24.4,24.4,0,0,1,1.679,2.037c.288.4.564.809.82,1.229q.146.238.284.483c.042.075.248.637.236.361l.328-1.211c.206-.4-.2.052-.454.195l-1.038.593-2.075,1.184-4.151,2.369a2.422,2.422,0,0,0-.485,3.77c2.077,1.948,4.144,3.908,6.144,5.936q.667.676,1.324,1.364c.378.4,1.084.882,1.3,1.381.044.106.086-.167-.059.127-.331.675-.686,1.34-1.031,2.009q-3.7,7.183-7.538,14.295-7.848,14.58-16.061,28.96-4.573,8.055-9.209,16.076c-1.546,2.681,2.6,5.1,4.145,2.423Z"/></svg>