<svg xmlns="http://www.w3.org/2000/svg" width="150.94" height="410.357" viewBox="0 0 150.94 410.357"><defs><style>.a{fill:#fff;}.b{fill:#7a7473;}.c{fill:#211715;}.d{fill:#85807f;}.e{fill:#febe69;}</style></defs><path class="a" d="M112.793,47.942a4.339,4.339,0,0,1,3.139-1.149,4.029,4.029,0,0,1,3.619,2.01c1.23,2.133,1.178,6.063.352,8.494a13.112,13.112,0,0,1-3.851,6.245,4.784,4.784,0,0,1-3.689,1.065l-.354-.06a28.113,28.113,0,0,1-1.27,3.446c-.947,2.571-6.222,11.647-12.87,15.057.1,1.226.259,2.439.473,3.659.343,1.963.237,3.714,2.969,4.7.081.03,1.752.821,3.565,1.679l-3.223,2.6c-3.766,3.086-10.61,4.43-16.765,4.43-5.227,0-11.612-1.178-16.546-4.43l-3.231-2.258c2.19-1.014,4.29-1.992,4.377-2.024,2.732-.987,2.614-2.738,2.968-4.7.2-1.166.358-2.238.45-3.367a24.622,24.622,0,0,1-8.658-6.981,33,33,0,0,1-6.264-11.82,4.694,4.694,0,0,1-3.993-1,13.117,13.117,0,0,1-3.85-6.245c-.826-2.431-.878-6.361.352-8.494a4.029,4.029,0,0,1,3.619-2.01,4.336,4.336,0,0,1,3.138,1.149S52.931,21.7,85.022,21.7,112.793,47.942,112.793,47.942Z"/><path class="a" d="M137.243,237.067l-.054-.1-.066.213c-.815,2.635-2.939,4.674-4.5,4.876a3.064,3.064,0,0,1-2.277-.437,3.6,3.6,0,0,1-1.327-2.262,195.277,195.277,0,0,1-1.28-20.808c4.092-1.329,8.389-2.778,12.577-4.281,3.6,8.148,8.287,19.061,8.553,27.572.061,1.953-.28,3.54-2.033,4.4a3.724,3.724,0,0,1-3.7-.513,10.142,10.142,0,0,1-2.517-2.97C139.169,240.477,138.148,238.759,137.243,237.067Z"/><path class="b" d="M73.27,398.052c2.829-1.971,5.329-3.7,6.13-4.2,5.143-3.212,4.569-7.583,4.456-10.579-.044-1.151-.167-3.61-.4-5.838-.715.857-1.427,1.734-1.427,1.734a95.494,95.494,0,0,1-13.509,11.028,10.849,10.849,0,0,1-9.642,1.282c-2.969-1.081-5.609-3.264-5.232-6.9l.262-2.527-.486.5c-3.335,3.419-7.006,6.784-10.341,10.1-2.167,2.157-3.866,5.022-3.789,8.165.052,2.15,1.559,4,3.318,5.236a13.416,13.416,0,0,0,6.025,2.121,22.768,22.768,0,0,0,14.179-2.91C63.6,404.819,68.837,401.141,73.27,398.052Z"/><path class="a" d="M87.02,309.262H84.814c-6.763.142-16.932.263-24.238.259,1.217,19.8,2.435,39.058,2.839,56.5a14.3,14.3,0,0,1-2.729,7.838,57.853,57.853,0,0,1-6.773,8.191c-.132,1.264-.263,2.53-.263,2.53-.377,3.631,2.263,5.814,5.232,6.9a10.849,10.849,0,0,0,9.642-1.282,95.494,95.494,0,0,0,13.509-11.028s.527-.65,1.13-1.377H86.7l1.3,1.377a95.512,95.512,0,0,0,13.51,11.028,10.846,10.846,0,0,0,9.641,1.282c2.969-1.081,5.609-3.264,5.232-6.9l-.262-2.527a58.118,58.118,0,0,1-6.774-8.194,14.3,14.3,0,0,1-2.729-7.838c.407-17.589,1.643-37.031,2.867-57C102.131,309.212,95.371,309.257,87.02,309.262Z"/><path class="b" d="M96.76,398.052c-2.829-1.971-5.329-3.7-6.13-4.2-5.143-3.212-4.569-7.583-4.456-10.579.044-1.151.211-3.429.522-5.481l1.3,1.377a95.512,95.512,0,0,0,13.51,11.028,10.846,10.846,0,0,0,9.641,1.282c2.969-1.081,5.609-3.264,5.232-6.9l-.262-2.527.486.5c3.335,3.419,7.006,6.784,10.341,10.1,2.167,2.157,3.866,5.022,3.79,8.165-.053,2.15-1.56,4-3.319,5.236a13.416,13.416,0,0,1-6.025,2.121,22.769,22.769,0,0,1-14.179-2.91C106.434,404.819,101.193,401.141,96.76,398.052Z"/><path class="c" d="M97.769,396.325c-1.856-1.293-3.7-2.6-5.591-3.854a8.4,8.4,0,0,1-3.559-3.7,10.411,10.411,0,0,1-.5-4.345,57.444,57.444,0,0,1,.5-6.1l-3.343.883A78.1,78.1,0,0,0,92.3,385.75q2.569,2.127,5.258,4.109a24.959,24.959,0,0,0,5.4,3.307,12.607,12.607,0,0,0,11.8-1.3,8.514,8.514,0,0,0,3.346-4.374c.558-1.782.214-3.631.026-5.44l-3.414,1.414c3.047,3.125,6.231,6.107,9.355,9.154,2.282,2.225,6.185,6.123,4.228,9.671-1.926,3.492-6.77,4.167-10.355,4.051a20.119,20.119,0,0,1-10.293-3.176c-3.339-2.2-6.587-4.554-9.87-6.842-2.116-1.475-4.118,1.991-2.018,3.454,3.306,2.3,6.573,4.682,9.943,6.892a24.118,24.118,0,0,0,12.455,3.677c4.734.106,9.973-1.142,12.955-5.1,3.055-4.055,1.276-9.25-1.664-12.82a72.209,72.209,0,0,0-5.912-5.876c-2.025-1.945-4.035-3.9-6-5.913-1.124-1.153-3.6-.362-3.414,1.414.14,1.349.573,3.048.117,4.377a4.827,4.827,0,0,1-2.319,2.5,8.985,8.985,0,0,1-9.56-.574,80.981,80.981,0,0,1-14.245-11.986c-.947-1-3.122-.63-3.343.883a66.923,66.923,0,0,0-.644,7.166,13.95,13.95,0,0,0,.745,5.682,11.731,11.731,0,0,0,4.815,5.511c2.057,1.334,4.055,2.763,6.067,4.164C97.867,401.254,99.869,397.788,97.769,396.325Z"/><path class="c" d="M108.022,300.111c-.779,13.009-1.627,26.014-2.319,39.028-.319,6-.605,12.01-.822,18.019-.193,5.317-.909,10.634,1.436,15.592a34.893,34.893,0,0,0,5.373,7.43c2.4,2.773,5.019,5.348,7.654,7.9,1.851,1.79,4.683-1.035,2.828-2.828-4.21-4.071-8.564-8.255-11.7-13.242-2.642-4.195-1.784-9.252-1.619-13.949.423-12.084,1.119-24.156,1.849-36.225q.657-10.86,1.324-21.721c.154-2.571-3.846-2.562-4,0Z"/><path class="c" d="M83.015,310v59.065c0,2.574,4,2.578,4,0V310c0-2.574-4-2.579-4,0Z"/><path class="c" d="M74.28,399.779c1.991-1.387,3.969-2.8,6-4.124a11.824,11.824,0,0,0,4.877-5.551,13.768,13.768,0,0,0,.75-5.561c-.085-2.374-.217-4.748-.451-7.112-.151-1.531-2.192-2.882-3.414-1.414a48.483,48.483,0,0,1-5.947,5.9,80,80,0,0,1-8.585,6.546,8.945,8.945,0,0,1-9.4.467,4.825,4.825,0,0,1-2.32-2.5c-.456-1.328-.022-3.033.117-4.377.184-1.772-2.283-2.574-3.414-1.414-3.528,3.617-7.282,7-10.827,10.6-3.13,3.177-5.707,8.152-3.633,12.569,2.1,4.461,7.328,6.188,11.9,6.5A24.393,24.393,0,0,0,63.9,406.954c3.584-2.169,6.949-4.781,10.384-7.175,2.1-1.462.1-4.931-2.019-3.454-3.051,2.127-6.088,4.276-9.164,6.367a20.854,20.854,0,0,1-9.272,3.528c-3.779.444-8.467.084-11.253-2.821-2.857-2.978-.286-7.116,2.089-9.49,3.519-3.519,7.19-6.879,10.665-10.442l-3.414-1.414c-.188,1.809-.532,3.658.026,5.44a8.514,8.514,0,0,0,3.346,4.374,12.614,12.614,0,0,0,11.609,1.376,24.27,24.27,0,0,0,5.584-3.384Q75,388,77.428,386a54.332,54.332,0,0,0,7.446-7.159l-3.414-1.414c.215,2.168.33,4.341.426,6.517a12.228,12.228,0,0,1-.378,4.545,7.8,7.8,0,0,1-3.476,3.86c-1.952,1.28-3.856,2.638-5.771,3.972C70.163,397.786,72.161,401.255,74.28,399.779Z"/><path class="c" d="M58.008,300.111c.751,12.536,1.564,25.068,2.243,37.608.326,6.026.62,12.055.848,18.086q.161,4.231.273,8.466a13.983,13.983,0,0,1-.959,6.123c-1.135,2.693-3.3,5.132-5.2,7.305-2.318,2.641-4.826,5.107-7.351,7.549-1.854,1.792.976,4.619,2.828,2.828a89.8,89.8,0,0,0,12.137-13.757c3.082-4.52,2.576-9.745,2.4-14.919-.411-12.369-1.12-24.727-1.865-37.08q-.671-11.1-1.354-22.209c-.153-2.558-4.154-2.575-4,0Z"/><path class="d" d="M68.6,5.809A31.039,31.039,0,0,1,84.842,2.1a30.47,30.47,0,0,1,13.381,2.37,33.516,33.516,0,0,1,17.191,16.076,28.859,28.859,0,0,1,1.9,5.055q.228.841.4,1.7c.972,4.72,2.188,14.221-.283,19.759a5.17,5.17,0,0,0-1.5-.261,4.339,4.339,0,0,0-3.139,1.149l-5.035-1.584A61.445,61.445,0,0,1,97.707,42.43c-.5-.269-.994-.538-1.475-.808l-6.877-.251c-4.158-.826-7.4-1.849-11.017-5.17-2.588-2.372-5.679-5.636-7.224-8.8a25.783,25.783,0,0,0-4.219,3.26,25.931,25.931,0,0,0-3.757,5.384,23.442,23.442,0,0,0-2.8,10.9l-3.09.99a4.336,4.336,0,0,0-3.138-1.149,4.175,4.175,0,0,0-.517.046c-.052.926-1.606-5.809-1.606-5.809a41.081,41.081,0,0,1-.03-13.735C53.816,18.178,60.268,10.243,68.6,5.809Z"/><path class="c" d="M137.921,213.773a141.607,141.607,0,0,1,7.37,19.073,35.18,35.18,0,0,1,1.582,9.353c0,1.013-.195,2.447-1.54,2.33-1.467-.128-2.422-1.892-3.114-2.982a83.149,83.149,0,0,1-5.355-9.78,2.016,2.016,0,0,0-2.736-.717,2.046,2.046,0,0,0-.718,2.736A82.3,82.3,0,0,0,139,243.933a9.706,9.706,0,0,0,4.47,4.2,5.365,5.365,0,0,0,5.844-1.256c2.541-2.692,1.5-7.424.886-10.668a71.411,71.411,0,0,0-3.534-11.882c-1.609-4.254-3.448-8.417-5.29-12.574a2.014,2.014,0,0,0-2.737-.717,2.048,2.048,0,0,0-.717,2.736Z"/><path class="a" d="M34.77,105.535a18.491,18.491,0,0,1,8.589-6.658c4.483-1.632,16.58-4.81,21.448-6.2,5.036,5.564,13.481,7.441,20.081,7.441,7.88,0,16.887-2.2,19.122-7.444,8.882,3.248,20.995,8.287,25.192,12.658,5.452,5.677,7.157,10.845,8.54,16.728,1.663,7.078,1.667,28.716,3.1,45.486.73,9.331,3.4,30.421,5.289,41.562a3.476,3.476,0,0,1-2.225,3.839c-6.794,2.535-14.139,4.973-20.6,7.014l-1.467.464c.229-9.7.16-18.41-.37-31.039H50.989c-2.347-1.21-2.54-4.066-2.2-7.1.381-3.444.583-6.321.684-8.975-1.158,4.163-6.365,6.581-10.774,5.807A18.651,18.651,0,0,1,26.668,171.3c-4.811-7.2-12.081-26.331-15.7-37.541Z"/><path class="c" d="M66.121,95.161c1.328-.615,2.654-1.234,3.984-1.846.115-.053.232-.1.347-.158-.677.327-.437.188-.124.062.254-.1.513-.209.761-.328A5.347,5.347,0,0,0,72.807,91.6a6.472,6.472,0,0,0,1.416-3.346c.252-1.607.532-3.208.677-4.83a2.008,2.008,0,0,0-2-2,2.053,2.053,0,0,0-2,2q-.057.636-.136,1.268c.045-.364-.01.063-.028.19-.027.182-.055.365-.084.547-.091.569-.189,1.137-.277,1.707a8.961,8.961,0,0,1-.277,1.317c-.022.07-.188.508-.043.151.138-.341-.018.017-.057.088a2.251,2.251,0,0,0-.2.313c.057-.18.285-.331.03-.067a2.492,2.492,0,0,0-.257.238q.369-.275.105-.087l-.11.072c-.118.075-.24.144-.364.207-.089.046-.18.089-.271.13.209-.086.243-.1.1-.049a6.1,6.1,0,0,0-1.117.487q-1.91.881-3.816,1.768a2.009,2.009,0,0,0-.718,2.736,2.056,2.056,0,0,0,2.737.718Z"/><path class="c" d="M95.887,83.268c.124,1.378.324,2.745.55,4.11a15.974,15.974,0,0,0,.394,2.117A5.382,5.382,0,0,0,98.3,91.926a6.034,6.034,0,0,0,1.308.916,10.571,10.571,0,0,0,.983.427c.637.244-.464-.225-.22-.1,1.9.975,3.881,1.831,5.815,2.746.924.437,1.843.89,2.787,1.285a2,2,0,0,0,2.46-1.4,2.063,2.063,0,0,0-1.4-2.46c.993.416.083.02-.15-.089q-.621-.291-1.241-.585l-3.36-1.59c-.867-.41-1.732-.822-2.6-1.227-.094-.044-.188-.089-.283-.131l-.072-.033c-.143-.063-.337-.144-.483-.2-.059-.024-.365-.169-.061-.018-.178-.089-.351-.181-.523-.281-.057-.033-.342-.221-.112-.062.2.142.015.012-.023-.025-.062-.063-.129-.132-.2-.192-.29-.259.1.076.063.1a4.875,4.875,0,0,1-.287-.482c-.111-.167.088.174.078.195a2.456,2.456,0,0,0-.118-.351c-.048-.16-.086-.324-.121-.487-.081-.386-.133-.776-.192-1.166-.085-.563-.187-1.124-.271-1.687-.037-.242-.041-.276-.081-.615-.045-.382-.084-.766-.118-1.149a2.043,2.043,0,0,0-2-2,2.022,2.022,0,0,0-2,2Z"/><path class="e" d="M52.471,302.466c-1.763-19.747-3.658-47.612-4.048-66.488-.378-18.311-.912-26.07,1.134-46.588H121.47c.74,17.631.58,27.627-.032,43.332-.758,19.464-2.3,52.343-5.093,76.074-10.97.411-19.537.467-31.531.467-9.744.205-26.557.365-31.694.173C52.908,307.261,52.691,304.927,52.471,302.466Z"/><path class="c" d="M47.13,193.894c-1.373,15.53-1.063,31.035-.591,46.6.464,15.27,1.444,30.527,2.6,45.759.587,7.733,1.231,15.464,1.982,23.183a2.055,2.055,0,0,0,2,2c6.834.246,13.7.082,20.533,0,8.829-.1,17.657-.14,26.485-.245q8.106-.1,16.207-.4a2.065,2.065,0,0,0,2-2c1.736-14.8,2.751-29.686,3.6-44.561.808-14.14,1.491-28.3,1.86-42.459.234-8.949.177-17.9-.124-26.842-.086-2.567-4.086-2.579-4,0,.509,15.156.091,30.273-.555,45.417-.625,14.659-1.395,29.316-2.5,43.947-.615,8.179-1.331,16.352-2.286,24.5l2-2c-9.7.36-19.4.459-29.113.466-8.061.007-16.123.235-24.185.257-3.308.01-6.621.036-9.927-.083l2,2c-1.419-14.575-2.507-29.186-3.389-43.8q-1.371-22.719-1.639-45.48a260.974,260.974,0,0,1,1.038-26.259,2.015,2.015,0,0,0-2-2,2.043,2.043,0,0,0-2,2Z"/><path class="c" d="M67.333,97.418c5.381,3.473,12.02,4.814,18.362,4.7,5.982-.111,12.572-1.19,17.372-5.008a2.013,2.013,0,0,0,0-2.829,2.051,2.051,0,0,0-2.829,0c-3.98,3.167-10.053,3.8-14.947,3.843a28.869,28.869,0,0,1-15.94-4.155c-2.169-1.4-4.177,2.061-2.018,3.453Z"/><path class="c" d="M52.8,191.39h67.787c2.574,0,2.578-4,0-4H52.8c-2.574,0-2.578,4,0,4Z"/><path class="c" d="M102.327,94.188c5.174,1.867,10.31,3.872,15.276,6.244,4.191,2,8.365,4.147,11.447,7.7,6.284,7.243,7.385,16.379,7.933,25.425.687,11.329.929,22.68,1.859,33.994.784,9.53,2.021,19.029,3.321,28.5q.574,4.186,1.2,8.364.273,1.8.564,3.6c.151.931.559,2.071-.264,2.8a6.659,6.659,0,0,1-2.039.859q-1.324.485-2.652.957-2.672.951-5.358,1.863-5.4,1.836-10.843,3.549c-2.446.774-1.4,4.637,1.063,3.857,6.761-2.139,13.541-4.314,20.164-6.852,3.016-1.156,4.526-3.49,4.012-6.725-.366-2.3-.741-4.6-1.081-6.91-1.506-10.188-2.835-20.42-3.812-30.673-1.085-11.378-1.37-22.807-1.972-34.216-.5-9.429-1.048-19.263-6.386-27.422a27.764,27.764,0,0,0-6.327-7.04A45.835,45.835,0,0,0,121.3,97.8a163.1,163.1,0,0,0-17.912-7.469c-2.425-.875-3.47,2.989-1.063,3.857Z"/><path class="c" d="M120.674,138.86c-.81,8.479-1.093,16.981-1.661,25.476a95.227,95.227,0,0,0-.276,13.6c.131,1.711.382,3.408.66,5.1.143.869.292,1.739.418,2.611a9,9,0,0,0,.117,1.5c-.029.205-.048.272-.055.2q.3-.333.763.087c-1.913-1.713-4.751,1.106-2.828,2.828a3.494,3.494,0,0,0,4.661.1c1.546-1.31,1.558-3.261,1.3-5.108a89.948,89.948,0,0,1-1.151-9.509c-.146-4.2.2-8.4.473-12.595.229-3.532.37-7.069.569-10.6.256-4.568.579-9.131,1.014-13.686a2.014,2.014,0,0,0-2-2,2.043,2.043,0,0,0-2,2Z"/><path class="c" d="M125.733,218.4a185.075,185.075,0,0,0,1.08,19.325c.192,1.669.328,3.233,1.428,4.592a4.809,4.809,0,0,0,4.379,1.735c3.242-.328,5.476-3.492,6.432-6.345.819-2.446-3.042-3.5-3.857-1.063-.361,1.078-2.086,4.285-3.649,3.375-.688-.4-.655-1.612-.733-2.294-.15-1.306-.273-2.614-.382-3.923-.423-5.12-.649-10.264-.7-15.4-.024-2.572-4.024-2.579-4,0Z"/><path class="c" d="M45.293,131.313c.917,8.336,1.683,16.68,1.888,25.066.2,8.269.578,16.455-.267,24.706-.436,4.253-.4,9.04,4.44,10.583,2.458.784,3.511-3.076,1.064-3.857-1.276-.406-1.653-1.464-1.74-2.724a37.567,37.567,0,0,1,.411-5.836,111.612,111.612,0,0,0,.416-11.391c-.1-7.569-.291-15.172-.884-22.72-.363-4.616-.822-9.224-1.328-13.827a2.059,2.059,0,0,0-2-2,2.014,2.014,0,0,0-2,2Z"/><path class="c" d="M62.362,91.288c-5.254,1.454-10.528,2.848-15.745,4.43a34.008,34.008,0,0,0-6.8,2.587,22.27,22.27,0,0,0-6.456,5.816,2.064,2.064,0,0,0,0,2.829,2.014,2.014,0,0,0,2.828,0A19.428,19.428,0,0,1,42,101.668a32.719,32.719,0,0,1,6.3-2.279c5.018-1.5,10.081-2.847,15.128-4.244,2.478-.686,1.426-4.546-1.063-3.857Z"/><path class="c" d="M9.04,134.286a273.7,273.7,0,0,0,10.778,28.2c1.724,3.826,3.5,7.837,6.11,11.157,3.28,4.175,8.649,7.387,14.036,7.608,5.529.226,11.046-3.375,11.714-9.074a2.013,2.013,0,0,0-2-2,2.048,2.048,0,0,0-2,2c-.436,3.721-5.171,5.45-8.4,5.018A16.391,16.391,0,0,1,28.1,169.832a75.147,75.147,0,0,1-5.109-9.988c-1.877-4.212-3.587-8.5-5.22-12.808-1.73-4.566-3.37-9.168-4.873-13.813-.789-2.439-4.652-1.4-3.857,1.063Z"/><path class="a" d="M34.683,110.815c.145,3.082-1.424,7.078-2.237,8.779a12.935,12.935,0,0,1-1.11,1.945c-.923,1.3-.488,2.722-.384,4.416.057.923.309,1.724.383,2.381-2.958,1.732-11.633,4.223-15.655,5.43a64.224,64.224,0,0,0-4.779-6.819c-3.029-2.019-7.126-7.609-8.558-13.484l-.316-2.214c-.113-.8.09-3.108,1.6-3.828a3.119,3.119,0,0,1,3.527.634c.017-.973.036-2.03.036-2.03a3.567,3.567,0,0,1,2.372-3.006c1.291-.467,1.973.274,2.819,1.048a3.459,3.459,0,0,1,.926-3.294c1.427-1.143,4.535-1.773,5.177,1.818-2.023-5.935-4.4-13.2-4.737-14.854a4.022,4.022,0,0,1,2.606-4.38c1.8-.575,4.252,1.764,4.7,2.916C23.166,91.8,24.564,95.821,26.7,102.6c1.112.052,2.181.145,3.375.239a4.353,4.353,0,0,1,2.543,1.36,9.552,9.552,0,0,1,2.067,6.615"/><path class="c" d="M28.459,101.539c-1.476-4.667-3.032-9.305-4.757-13.886-.755-2.005-1.416-3.619-3.154-4.961-1.755-1.355-3.961-1.935-5.96-.709A6.107,6.107,0,0,0,11.7,87.436a14.774,14.774,0,0,0,.733,3.068c.936,3.115,1.964,6.2,2.995,9.287,1.12,3.35,2.246,6.7,3.458,10.017.877,2.4,4.744,1.363,3.858-1.063-1.946-5.32-3.729-10.708-5.455-16.1-.37-1.159-.737-2.318-1.083-3.484a8.219,8.219,0,0,1-.522-2.03,2.1,2.1,0,0,1,.729-1.55c.483-.413.711-.345,1.261-.03,1.424.815,1.766,2.085,2.311,3.539,1.673,4.459,3.182,8.974,4.618,13.515.774,2.446,4.637,1.4,3.857-1.063Z"/><path class="c" d="M.28,113.452a27.359,27.359,0,0,0,7.907,13.883,16.156,16.156,0,0,0,1.282,1.039c.4.29-.1-.181.241.225a4.528,4.528,0,0,1,.354.454q.386.517.761,1.04a53.051,53.051,0,0,1,3.128,4.683,2.033,2.033,0,0,0,2.259.919c2.8-.84,5.611-1.663,8.392-2.573a41.676,41.676,0,0,0,7.74-3.059,2.074,2.074,0,0,0,.919-2.258c-.2-1.394-.77-3.159-.5-4.568a5.642,5.642,0,0,1,.865-1.588,19.073,19.073,0,0,0,.905-1.851,21.591,21.591,0,0,0,2.146-8.983c-.066-2.569-4.066-2.579-4,0a17.8,17.8,0,0,1-2.233,8.31c-.787,1.517-1.692,2.676-1.691,4.473a36.79,36.79,0,0,0,.647,5.27l.919-2.259a37.731,37.731,0,0,1-7.116,2.764c-2.673.867-5.369,1.658-8.06,2.465l2.258.919a52.008,52.008,0,0,0-2.962-4.451,15.3,15.3,0,0,0-2.957-3.385c-3.763-2.951-6.312-7.959-7.35-12.533-.57-2.509-4.428-1.447-3.858,1.064Z"/><path class="c" d="M8.556,106.63a5.1,5.1,0,0,0-6.749-.37A6.047,6.047,0,0,0,0,110.9a13.5,13.5,0,0,0,1.422,5.241,7.769,7.769,0,0,0,1.736,2.628A5.031,5.031,0,0,0,6.263,120c2.457.11,4.4-1.974,5.026-4.187a2,2,0,0,0-3.858-1.063c-.041.148-.107.3-.139.448-.042.2.066-.175.087-.188-.029.018-.061.131-.079.163s-.224.352-.218.362c-.013-.023.277-.3.118-.155-.065.059-.12.135-.182.2-.123.126-.255.241-.387.357-.062.054-.25.133-.042.037.252-.115.006-.01-.012-.005-.328.089.465-.1-.006.007-.057.013-.117.028-.173.045-.292.086.13-.063.173-.021a2.135,2.135,0,0,0-.431-.006c-.209.007.214.007.222.027a1.278,1.278,0,0,0-.184-.044c-.058-.02-.122-.038-.182-.054-.36-.1.135.025.125.055,0,0-.157-.085-.168-.091a1.252,1.252,0,0,1-.11-.068c-.088-.059-.073-.044.046.045.059-.028.153.154,0-.007a2.479,2.479,0,0,1-.183-.185c.015-.02.217.344.111.144-.04-.078-.1-.151-.144-.225-.232-.373-.447-.758-.644-1.151-.091-.181-.171-.367-.259-.55-.1-.209.028.07.038.095-.029-.076-.06-.15-.089-.226q-.192-.5-.341-1.014a16.324,16.324,0,0,1-.388-1.778c-.068-.39.02.473.018.126,0-.078-.008-.155-.009-.233,0-.105,0-.21.008-.315s.055-.506,0-.14c-.055.385.018-.082.037-.168.023-.113.051-.225.082-.336.037-.132.1-.26.129-.392.045-.191-.073.2-.087.2.038-.021.084-.17.107-.212.038-.069.083-.133.121-.2.14-.253-.038.114-.1.121a1.443,1.443,0,0,0,.119-.129A.931.931,0,0,1,4.5,109.2q.167-.151-.177.126c.008,0,.492-.25.216-.142-.306.121.591-.142.227-.065-.257.054-.033,0,.031,0l.3,0c.321,0-.08.054-.091-.013,0,.011.263.068.288.075.043.011.286.1.043,0s.055.036.1.063c.09.051.173.113.262.164.235.134-.338-.3.026.034a2,2,0,1,0,2.828-2.829Z"/><path class="c" d="M13.792,102.651a5.567,5.567,0,0,0-3.014-1.731,4.878,4.878,0,0,0-3.729,1.311c-1.7,1.466-2,3.508-1.772,5.626a20.1,20.1,0,0,0,1.89,6.664,7.074,7.074,0,0,0,1.382,2.055,5.3,5.3,0,0,0,3.419,1.365,5.088,5.088,0,0,0,3.582-1.458,4.414,4.414,0,0,0,1.7-3.277,2,2,0,0,0-4,0c.006.21.022.148.046-.184-.065.2-.048.166.049-.1a3.035,3.035,0,0,1-.158.262c.155-.187.159-.191.012-.015-.115.126-.229.25-.353.368-.081.077-.164.151-.25.223.194-.143.2-.152.028-.026-.062.037-.483.357-.242.154l-.187.051q.324-.021-.038,0a3.168,3.168,0,0,1-.377-.014q.335.042-.016-.029c-.127-.051-.486-.225-.188-.055a3.239,3.239,0,0,1-.291-.169c.186.156.2.164.037.021-.268-.329.214.392-.074-.08-.168-.275-.337-.546-.485-.832q-.15-.288-.285-.584c-.036-.079-.228-.55-.079-.176-.181-.455-.347-.915-.492-1.384q-.239-.764-.409-1.546c-.048-.216-.091-.434-.13-.652-.027-.147-.051-.3-.074-.443.018.158.013.111-.017-.143a14.769,14.769,0,0,1-.09-1.6c0-.11,0-.22.007-.33-.056.356-.064.424-.023.206a2.651,2.651,0,0,0,.126-.421c.052-.137.029-.083-.067.164q.064-.131.138-.255c.051-.087.106-.171.164-.254q-.236.3-.015.037c.122-.113.231-.238.36-.344-.336.273.257-.127.342-.166q-.293.118.084-.013c.252-.058.265-.061.037-.007l-.2-.034c.218.066.212.055-.018-.035a2.479,2.479,0,0,1,.284.17c-.175-.144-.174-.142.005.007.183.166.366.331.548.5a2,2,0,1,0,2.828-2.828Z"/><path class="c" d="M18.393,98.7c-1.937-1.482-4.769-.789-6.5.661-1.763,1.477-1.844,4.108-1.191,6.131.616,1.91,1.333,3.792,2.1,5.645a5.177,5.177,0,0,0,1.8,2.711,5.659,5.659,0,0,0,3.187.875,5.109,5.109,0,0,0,3.6-1.619,7.454,7.454,0,0,0,1.314-2.718,2.013,2.013,0,0,0-1.4-2.46,2.048,2.048,0,0,0-2.46,1.4c-.1.289-.209.588-.284.884s.22-.387-.051.091a2.41,2.41,0,0,1-.139.221q.27-.334.048-.087c-.158.143-.139.136.057-.019a2.9,2.9,0,0,1-.286.178q-.3.147-.045.036a2.486,2.486,0,0,1-.349.1c.407-.109-.234-.008-.365-.011.444.01-.208-.05-.326-.085s-.209-.067-.312-.107c.236.1.256.105.062.01a2.623,2.623,0,0,1-.233-.141q.354.291.135.091c.328.366.182.274.093.043-.028-.075-.3-.718-.126-.291q-.585-1.4-1.12-2.828c-.351-.934-.69-1.873-1-2.821-.116-.353-.218-.7-.306-1.063.123.5,0-.134,0-.272s.132-.759.007-.291c.028-.107.261-.732.048-.3a2.561,2.561,0,0,1,.153-.282c.125-.186.117-.177-.024.025q.25-.231-.055.007c.081-.06.164-.117.25-.17s.689-.334.235-.157c.209-.081.421-.13.634-.193q.346-.064-.039,0a3.05,3.05,0,0,1,.331-.01c.233.016.219.009-.042-.019a2.316,2.316,0,0,1,.317.085c-.417-.128.143.119.257.207a2,2,0,0,0,2.737-.718,2.062,2.062,0,0,0-.718-2.736Z"/><path class="c" d="M36.683,110.815a11.617,11.617,0,0,0-2.015-7.152,6.272,6.272,0,0,0-3.1-2.488,12.857,12.857,0,0,0-3.794-.512c-2.564-.173-5.3-.329-7.328,1.534a5.013,5.013,0,0,0-.694,6.416,6.558,6.558,0,0,0,3.572,2.722,30.849,30.849,0,0,0,4.1.955,2.054,2.054,0,0,0,2.46-1.4,2.017,2.017,0,0,0-1.4-2.46c-.949-.175-1.9-.359-2.833-.594-.425-.107-.847-.223-1.263-.361-.1-.032-.193-.066-.289-.1-.314-.11.226.135-.054-.021-.085-.047-.169-.095-.252-.147a.887.887,0,1,0-.08-.063,2.268,2.268,0,0,1-.613-.726c-.069-.117-.215-.519-.115-.2-.033-.106-.06-.213-.093-.319-.073-.238,0-.1,0,.06.007-.148.006-.311,0-.459.009.319-.007.187.043-.052.067-.323-.162.2.033-.064a1.143,1.143,0,0,0,.118-.191c.076-.173-.282.245.021-.009.126-.106.351-.293.074-.1.137-.095.283-.171.423-.261.29-.186-.18.027.164-.074.21-.062.417-.119.631-.166.318-.069-.284.016.054-.009.1-.008.2-.015.308-.019.247-.009.495,0,.743,0,.55.009,1.1.032,1.65.063s1.081.071,1.621.113l.772.061c.132.011.264.025.4.032.365.019-.217-.115-.025,0,.058.036.5.162.349.1-.194-.077.092.046.107.054.113.061.227.119.337.184s.423.335.183.107a1.8,1.8,0,0,1,.171.167c.169.21-.178-.265.026.046a16.319,16.319,0,0,1,.853,1.411c.048.094.095.188.141.283.016.033.166.367.112.237-.069-.165.054.149.052.144.044.13.092.258.133.389.072.228.135.46.188.693.021.093.12.67.085.394a9.614,9.614,0,0,1,.032,1.771,2,2,0,0,0,4,0Z"/><path class="c" d="M119.405,47.483c1.689-4.036,1.664-8.768,1.321-13.058a42.681,42.681,0,0,0-2.733-12.976A35.49,35.49,0,0,0,97.058,1.886,39.553,39.553,0,0,0,81.422.113a34,34,0,0,0-12.8,3.445A35.1,35.1,0,0,0,51.232,22.572c-2.881,7.752-2.27,16.737.236,24.517.786,2.441,4.65,1.4,3.857-1.063-1.929-5.991-2.712-12.7-1.289-18.883a30.153,30.153,0,0,1,13.5-18.407A31.034,31.034,0,0,1,78.584,4.447a29.764,29.764,0,0,1,5.9-.367,39.877,39.877,0,0,1,7.574.555A31.574,31.574,0,0,1,112.892,20.02a33.868,33.868,0,0,1,3.72,13.164c.445,4.35.658,9.12-1.064,13.236a2.012,2.012,0,0,0,1.4,2.46,2.051,2.051,0,0,0,2.46-1.4Z"/><path class="c" d="M58.665,46.527a6.737,6.737,0,0,0-7.342-1.093,6.406,6.406,0,0,0-3.347,4.306A15.994,15.994,0,0,0,50.3,62.365c1.643,2.445,4.24,4.65,7.385,4.242a2.066,2.066,0,0,0,2-2,2.011,2.011,0,0,0-2-2c-2.175.282-3.591-1.519-4.535-3.26a12.925,12.925,0,0,1-1.55-4.815,8.264,8.264,0,0,1,.825-5.035c-.327.524.511-.436.2-.21a1.824,1.824,0,0,1,.917-.42,2.5,2.5,0,0,1,2.3.489c1.916,1.709,4.754-1.111,2.829-2.829Z"/><path class="c" d="M114.208,49.356a2.471,2.471,0,0,1,2.169-.516,1.919,1.919,0,0,1,1.044.447c-.3-.222.52.719.2.21a8.247,8.247,0,0,1,.825,5.035,12.956,12.956,0,0,1-1.551,4.815c-.943,1.74-2.358,3.542-4.534,3.26a2.01,2.01,0,0,0-2,2,2.051,2.051,0,0,0,2,2c5.114.664,8.259-4.855,9.538-8.99,1.148-3.715,1.088-9.463-2.542-11.838a6.7,6.7,0,0,0-7.98.748c-1.925,1.718.912,4.539,2.829,2.829Z"/><path class="c" d="M110.6,61.977a28.079,28.079,0,0,1-1.265,4.216c-.192.506-.323.764-.564,1.362-.2.5.145-.293-.027.067-.061.127-.118.256-.179.384a35.954,35.954,0,0,1-3.089,5.141c-2.679,3.8-6.347,7.944-11.055,9.05-2.5.589-1.444,4.447,1.064,3.857,5.6-1.315,9.9-5.986,13.143-10.467a36.644,36.644,0,0,0,3.357-5.494c.2-.418.383-.844.562-1.272.215-.513-.164.356.072-.164.153-.337.291-.682.427-1.025a28.064,28.064,0,0,0,1.411-4.592c.524-2.512-3.331-3.586-3.857-1.063Z"/><path class="c" d="M55.5,62.941C57.9,73.47,65.831,84.949,77.209,86.666a2.067,2.067,0,0,0,2.461-1.4,2.016,2.016,0,0,0-1.4-2.46C68.187,81.287,61.482,71.185,59.36,61.878c-.572-2.509-4.429-1.447-3.857,1.063Z"/><path class="c" d="M79.571,71.9a11.933,11.933,0,0,0,5.745,1.342,9.478,9.478,0,0,0,5.913-1.794,1.994,1.994,0,0,0,.585-1.414,2.035,2.035,0,0,0-.585-1.414,2.064,2.064,0,0,0-2.829,0c.692-.539-.015-.019-.233.1-.169.089-.618.229.016.012-.156.054-.308.119-.465.169-.422.136-.887.157-1.3.3.212-.071.332-.04.032-.01-.128.013-.256.023-.384.032-.308.02-.616.027-.924.026-.277,0-.553-.011-.828-.03-.127-.009-.253-.019-.38-.032-.072-.007-.144-.015-.215-.024-.158-.019-.095-.01.188.025a8.606,8.606,0,0,1-1.216-.269c-.17-.051-.336-.112-.5-.17-.445-.153.425.2.021.013-.208-.1-.414-.2-.617-.309A2,2,0,1,0,79.571,71.9Z"/><path class="c" d="M84.033,58.714a25.89,25.89,0,0,1,.6,2.754l-.072-.532a1.665,1.665,0,0,1,.01.38l.072-.532a.89.89,0,0,1-.042.171l.2-.477a.688.688,0,0,1-.061.109l.313-.4a.535.535,0,0,1-.09.088l.405-.312a1.969,1.969,0,0,1-.218.115l.478-.2a1.571,1.571,0,0,1-.368.108l.532-.072a1.475,1.475,0,0,1-.345,0l.531.071c-.13-.018-.258-.05-.388-.067a1.512,1.512,0,0,0-.8-.036,1.492,1.492,0,0,0-.744.237,2,2,0,0,0-.717,2.737l.312.405a2.009,2.009,0,0,0,.883.514c.348.047.686.134,1.041.149a3.433,3.433,0,0,0,1.6-.39,2.442,2.442,0,0,0,1.313-1.592,3.731,3.731,0,0,0-.013-1.649c-.15-.887-.355-1.766-.583-2.637a2.064,2.064,0,0,0-.919-1.2,2,2,0,0,0-2.737.718,2.1,2.1,0,0,0-.2,1.541Z"/><path class="c" d="M70.039,50.759c-.46,1.494-.16,4.932,2.671,5.225,3.742-.023,3.941-4.179,2.681-6.133C74.36,48.25,71.327,47.585,70.039,50.759Z"/><path class="c" d="M100.005,50.759c.46,1.494.16,4.932-2.671,5.225-3.742-.023-3.941-4.179-2.682-6.134C95.684,48.25,98.716,47.585,100.005,50.759Z"/><path class="c" d="M68.75,26.963c1.715,4.274,5.026,7.851,8.426,10.88A23.9,23.9,0,0,0,88.824,43.3a2.051,2.051,0,0,0,2.46-1.4,2.02,2.02,0,0,0-1.4-2.461C86.2,38.7,82.856,37.554,80,35.015c-2.813-2.505-5.966-5.552-7.4-9.116a2.063,2.063,0,0,0-2.461-1.4,2.015,2.015,0,0,0-1.4,2.461Z"/><path class="c" d="M87.181,33.723c-1.79,2.389.72,4.85,2.558,6.16a61.674,61.674,0,0,0,6.183,3.854,54.257,54.257,0,0,0,11.3,4.55c2.482.7,3.542-3.161,1.063-3.857a51.089,51.089,0,0,1-9.148-3.507,57.067,57.067,0,0,1-5-2.882c-.856-.547-1.712-1.107-2.527-1.713a4.7,4.7,0,0,1-.779-.693l-.183-.208c-.445-.331.082.179-.02.315a2.014,2.014,0,0,0-.718-2.737,2.049,2.049,0,0,0-2.736.718Z"/><path class="c" d="M65.481,29.252a28.29,28.29,0,0,0-5.368,8.578,27.445,27.445,0,0,0-1.773,9.122,2,2,0,0,0,4,0A23.109,23.109,0,0,1,68.309,32.08c1.749-1.886-1.073-4.721-2.828-2.828Z"/><path class="a" d="M115.673,64.074a4.543,4.543,0,0,0-4.633,4.6,4.634,4.634,0,1,0,9.267,0A4.54,4.54,0,0,0,115.673,64.074Z"/><path class="a" d="M53.981,64.074a4.544,4.544,0,0,0-4.634,4.6,4.344,4.344,0,0,0,4.634,4.692,4.311,4.311,0,0,0,4.633-4.692A4.539,4.539,0,0,0,53.981,64.074Z"/><path class="c" d="M115.673,62.074a6.642,6.642,0,0,0-6.377,4.754,6.85,6.85,0,0,0,2.173,7.189,7.316,7.316,0,0,0,7.66.527,6.545,6.545,0,0,0,3.139-6.481,6.616,6.616,0,0,0-2.051-4.241,6.835,6.835,0,0,0-4.544-1.748,2,2,0,0,0,0,4c.135,0,.269.012.4.015.461.011-.459-.1-.015,0a5.864,5.864,0,0,1,.61.156l.117.04q.3.115-.138-.064a1.231,1.231,0,0,0,.218.106c.106.055.21.114.312.178.067.042.133.086.2.131.17.124.129.092-.123-.1.048.129.328.3.425.4.049.052.246.348.071.065s.02.034.051.08c.118.178.2.388.319.561.149.214-.165-.481-.04-.1.05.152.1.3.144.455.02.078.038.156.055.234l.022.119c.035.216.029.159-.02-.17a2.646,2.646,0,0,0,.024.624c0,.127-.008.255-.018.381l-.01.124c-.025.22-.016.164.025-.169a5.2,5.2,0,0,0-.152.682c-.032.108-.071.212-.107.318-.06.182-.147.116.076-.174-.124.161-.2.384-.31.557-.037.056-.09.114-.12.171.235-.444.186-.234.048-.085q-.088.095-.183.183c-.158.149-.417.221.047-.013-.154.077-.292.2-.444.282-.091.05-.206.086-.29.144.392-.273.276-.111.067-.04a5.049,5.049,0,0,1-.555.15c-.154.032-.526.035.057.006-.125.006-.25.026-.374.034a6.593,6.593,0,0,1-.77,0c-.083,0-.165-.015-.247-.02-.438-.03.476.1.057,0-.187-.045-.373-.081-.557-.139a2.872,2.872,0,0,0-.315-.11q.462.2.179.07c-.049-.023-.1-.047-.144-.073-.169-.09-.322-.224-.492-.307.407.2.263.225.12.083-.061-.061-.128-.117-.188-.178s-.14-.154-.211-.231c-.209-.229.113.132.121.157a4.922,4.922,0,0,0-.376-.644c-.092-.178.038-.153.073.174a2.031,2.031,0,0,0-.11-.318c-.056-.186-.092-.375-.136-.564-.1-.423.032.493,0,.051-.009-.125-.021-.25-.026-.376a3.586,3.586,0,0,0,.02-.75c.091.287-.078.395-.009.113.033-.136.058-.273.1-.408.033-.115.074-.225.112-.339.128-.391-.217.4-.015.045.125-.22.269-.431.393-.651s-.337.37-.058.084c.109-.112.211-.229.326-.336a1.224,1.224,0,0,0,.177-.155q-.378.283-.124.1.1-.069.2-.132c.085-.053.171-.1.259-.151.053-.029.106-.056.161-.082.193-.09.145-.071-.143.054.154.034.539-.176.718-.215l.125-.025q.327-.054-.145.015a5.3,5.3,0,0,0,.536-.027,2,2,0,0,0,0-4Z"/><path class="c" d="M53.981,62.074A6.643,6.643,0,0,0,47.6,66.828a6.85,6.85,0,0,0,2.173,7.189,7.317,7.317,0,0,0,7.66.527,6.543,6.543,0,0,0,3.139-6.481,6.616,6.616,0,0,0-2.051-4.241,6.834,6.834,0,0,0-4.543-1.748,2,2,0,0,0,0,4c.134,0,.268.012.4.015.461.011-.459-.1-.015,0a5.864,5.864,0,0,1,.61.156l.117.04q.3.115-.138-.064a1.266,1.266,0,0,0,.218.106c.106.055.21.114.312.178.067.042.133.086.2.131.169.124.128.092-.124-.1.048.129.328.3.426.4.048.052.245.348.07.065s.02.034.051.08c.119.178.2.388.319.561.149.214-.165-.481-.04-.1.05.152.1.3.144.455.02.078.039.156.055.234l.023.119q.053.324-.021-.17a2.646,2.646,0,0,0,.024.624c0,.127-.008.255-.018.381l-.01.124c-.024.22-.016.164.026-.169a5.2,5.2,0,0,0-.153.682c-.032.108-.071.212-.107.318-.06.182-.146.116.076-.174-.124.161-.2.384-.31.557-.037.056-.089.114-.12.171.235-.444.186-.234.048-.085-.059.063-.12.124-.182.183-.159.149-.418.221.046-.013-.154.077-.291.2-.444.282-.091.05-.206.086-.289.144.392-.273.276-.111.066-.04a5.049,5.049,0,0,1-.555.15c-.154.032-.526.035.057.006-.124.006-.249.026-.374.034a6.593,6.593,0,0,1-.77,0c-.082,0-.164-.015-.247-.02-.438-.03.477.1.058,0-.187-.045-.374-.081-.558-.139a2.8,2.8,0,0,0-.315-.11c.309.134.368.157.179.07-.049-.023-.1-.047-.144-.073-.169-.09-.322-.224-.492-.307.407.2.264.225.121.083-.062-.061-.128-.117-.189-.178s-.14-.154-.21-.231c-.209-.229.112.132.12.157a4.922,4.922,0,0,0-.376-.644c-.092-.178.039-.153.073.174a2.134,2.134,0,0,0-.109-.318c-.057-.186-.093-.375-.137-.564-.1-.423.032.493,0,.051-.008-.125-.021-.25-.026-.376a3.586,3.586,0,0,0,.02-.75c.091.287-.078.395-.009.113.033-.136.059-.273.1-.408.033-.115.075-.225.112-.339.128-.391-.217.4-.015.045.125-.22.27-.431.393-.651s-.337.37-.058.084c.11-.112.211-.229.326-.336.035-.032.167-.124.177-.155q-.378.283-.124.1.1-.069.2-.132c.085-.053.171-.1.259-.151.053-.029.107-.056.161-.082.193-.09.145-.071-.143.054.154.034.539-.176.718-.215l.126-.025c.217-.036.169-.031-.146.015a5.336,5.336,0,0,0,.537-.027,2,2,0,1,0,0-4Z"/></svg>