<svg xmlns="http://www.w3.org/2000/svg" width="186.9" height="279.931" viewBox="0 0 186.9 279.931"><defs><style>.a{fill:#a88876;}.b{fill:#fff;}.c{fill:#211715;}.d{fill:#f8b8b4;}</style></defs><path class="a" d="M47.114,162.575c-14.5,2.407-23.76-9.106-23.692-17.4A97.036,97.036,0,0,1,26.378,124.5c2.3-8.211,3.94-22.651,3.94-42.676-.98-29.545,6.791-50.97,19.043-62.7,7.386-7.071,24.029-16.7,42.729-16.7a67.889,67.889,0,0,1,27.144,5.2l8.322,4.125c3.607,2.111,4.893,3.92,8.6,7.476,9.319,8.929,15.8,24.994,16.828,39.381.3,4.15.88,14.062.606,22.423.195,14.482,1.847,28.61,5.965,42.519,2.39,8.072,5.6,18.457,3.017,26.47-3.15,9.78-14.444,15.8-24.253,12.305Z"/><path class="b" d="M50.935,73.826c8.862-7.264,18.4-16.313,27.133-24.889-.372,3.14-1.673,8.508-1.884,11.756-.084,1.306.194,1.758,1.185,2.227a4.545,4.545,0,0,0,2.643-.121,63.311,63.311,0,0,0,31.562-22.983c1.728,6.64,4.18,14.9,6.313,18.933,5.277,9.963,14.232,18.354,22.194,20.783a7.4,7.4,0,0,1,5.354-1.936,6.862,6.862,0,0,1,6.151,3.449c2.081,3.641,1.966,10.334.544,14.471-1.007,2.929-2.656,7.41-6.6,10.612a8.147,8.147,0,0,1-6.292,1.79l-.6-.1a47.83,47.83,0,0,1-2.186,5.861c-1.59,4.266-10.238,19.052-21.2,25.124.038,2.284-.031,3.112.179,5.989a13.983,13.983,0,0,0,.673,3.952,9.662,9.662,0,0,0,2.9,4.218c2.944,2.371,5.97,3.5,9.7,4.906l3.886,1.529c-9.834,6.707-26.066,10.477-39.836,10.787-13.573-.309-29.609-3.98-39.459-10.526l4.547-1.79c3.727-1.4,6.752-2.535,9.7-4.906a9.653,9.653,0,0,0,2.9-4.218,14.02,14.02,0,0,0,.674-3.952c.2-2.667.149-3.573.171-5.511-5.12-2.464-9.71-6.389-14.076-11.655a56.25,56.25,0,0,1-10.593-20.177,7.992,7.992,0,0,1-6.794-1.728c-3.92-3.233-5.534-7.727-6.518-10.664-1.39-4.147-1.452-10.842.656-14.466a6.863,6.863,0,0,1,6.178-3.4,7.541,7.541,0,0,1,4.7,1.432C46.812,77.139,48.855,75.532,50.935,73.826Z"/><path class="c" d="M80.765,139.665c-7.784-1.181-14.189-5.343-19.493-11.033a54.348,54.348,0,0,1-12.353-21.824,2.453,2.453,0,0,0-2.952-1.676c-3.872.844-6.845-3.092-8.443-6.069a22.8,22.8,0,0,1-2.765-9.041,19.828,19.828,0,0,1,.228-5.167,11.96,11.96,0,0,1,.625-2.255,6.884,6.884,0,0,1,.492-.94c.056-.092.509-.707.165-.281a5.383,5.383,0,0,1,7.5-.518c2.279,2.077,5.683-1.308,3.394-3.394a10.431,10.431,0,0,0-11.531-1.625,10.17,10.17,0,0,0-5.126,7.063,26.454,26.454,0,0,0,4.128,20.63c2.915,4.174,7.286,7.386,12.609,6.225l-2.952-1.676A58.78,58.78,0,0,0,53.674,127c4.183,5.532,9.276,10.658,15.48,13.893a33.077,33.077,0,0,0,10.335,3.4,2.477,2.477,0,0,0,2.952-1.676,2.417,2.417,0,0,0-1.676-2.952Z"/><path class="c" d="M141.778,81.229a5.32,5.32,0,0,1,4.58-1.134,5,5,0,0,1,2.007.82c-.171-.12.392.343.471.424s.62.783.3.327c1.78,2.557,1.809,6.186,1.534,9.19a22.89,22.89,0,0,1-2.989,8.967c-1.729,3.041-4.55,6.344-8.412,5.676a2.469,2.469,0,0,0-2.953,1.676,48.787,48.787,0,0,1-1.943,5.289c-.133.3-.248.6-.372.906-.146.359.255-.539,0-.005-.177.369-.342.744-.524,1.111a59.025,59.025,0,0,1-3.575,6.141,55.3,55.3,0,0,1-12.16,13.681,23.133,23.133,0,0,1-8.926,4.44c-3.011.683-1.737,5.311,1.276,4.628,6.678-1.515,12.331-6.168,16.849-11.116a69.4,69.4,0,0,0,10.34-14.681c.516-.994.951-2.011,1.4-3.038.023-.053.109-.249,0,.009-.159.365.161-.346.189-.411q.37-.854.709-1.72c.508-1.3.959-2.624,1.375-3.958L138,110.128c4.5.777,8.318-.882,11.284-4.3a27.9,27.9,0,0,0,5.122-9.555,24.736,24.736,0,0,0,.889-11.361c-.453-3.118-1.671-6.1-4.286-7.993a10.337,10.337,0,0,0-12.62.911c-2.3,2.068,1.1,5.453,3.394,3.394Z"/><path class="c" d="M109.407,41.029c1.73,6.547,3.436,13.5,6.7,19.483A51.773,51.773,0,0,0,130.15,76.9a30.735,30.735,0,0,0,9.293,4.942c2.954.927,4.218-3.7,1.276-4.628-7.266-2.28-13.351-8.4-17.6-14.506-4.8-6.889-6.965-14.933-9.086-22.959-.788-2.984-5.419-1.718-4.628,1.276Z"/><path class="c" d="M109.459,38.663a62.444,62.444,0,0,1-15.3,14.629,61.921,61.921,0,0,1-9.416,5.166c-1.627.717-3.3,1.349-4.99,1.9a5.732,5.732,0,0,1-1.1.306,2.154,2.154,0,0,0-.359,0c-.474.18.011-.2.037.08.018.185.166.757.245.477a8.472,8.472,0,0,0,.073-1.278c.37-3.7,1.361-7.316,1.82-11.006.269-2.167-2.744-3.026-4.1-1.7-8.8,8.642-17.742,17.19-27.287,25.016a2.418,2.418,0,0,0,0,3.394,2.456,2.456,0,0,0,3.395,0c9.544-7.826,18.483-16.374,27.286-25.016l-4.1-1.7c-.428,3.436-1.454,7.346-1.82,11.006-.206,2.069.231,3.922,2.171,4.979,2.075,1.131,4.48.28,6.525-.458a65.746,65.746,0,0,0,21.438-12.746A70.69,70.69,0,0,0,113.6,41.086a2.416,2.416,0,0,0-.861-3.284,2.457,2.457,0,0,0-3.283.861Z"/><path class="c" d="M151.194,81.021a162.472,162.472,0,0,0,6.27,43.9c1.8,6.066,3.737,12.32,3.664,18.711A17.064,17.064,0,0,1,154.6,157.27,16.692,16.692,0,0,1,138.961,160c-2.927-1.01-4.184,3.625-1.276,4.628,11.387,3.927,24.593-3.469,27.521-15.088,1.726-6.845.16-14.173-1.654-20.832-1.947-7.151-4.058-14.173-5.314-21.5a169.481,169.481,0,0,1-2.244-26.192c-.044-3.086-4.845-3.095-4.8,0Z"/><path class="c" d="M126.345,13.813a26.116,26.116,0,0,1,5.124,4.136c1.738,1.736,3.557,3.408,5.184,5.251a51.663,51.663,0,0,1,7.816,12.307,68.537,68.537,0,0,1,4.86,14.533,81.572,81.572,0,0,1,1.536,12.969c.33,6,.515,12.009.329,18.012-.095,3.09,4.705,3.086,4.8,0,.174-5.6.02-11.208-.265-16.8a98.357,98.357,0,0,0-1.486-14.078c-2.049-10.4-6.328-20.686-13.03-28.957a85.381,85.381,0,0,0-6.091-6.371,32.488,32.488,0,0,0-6.354-5.145c-2.661-1.583-5.078,2.565-2.423,4.144Z"/><path class="c" d="M119.872,5.3A72.191,72.191,0,0,0,89.454.08,68.813,68.813,0,0,0,59.477,8.936,53.738,53.738,0,0,0,41.974,24a68.441,68.441,0,0,0-10.4,22.514c-3.132,11.455-4.027,23.475-3.652,35.31.1,3.082,4.9,3.095,4.8,0-.569-17.953,1.641-37.366,11.6-52.787a46.4,46.4,0,0,1,14.6-14.194A64.938,64.938,0,0,1,85.99,5.151,67.73,67.73,0,0,1,118.6,9.93a2.416,2.416,0,0,0,2.952-1.676A2.46,2.46,0,0,0,119.872,5.3Z"/><path class="c" d="M27.918,81.821c0,8.3-.256,16.609-1.023,24.876a101.331,101.331,0,0,1-2.605,16.328,97.29,97.29,0,0,0-3.238,20.9,19.793,19.793,0,0,0,5.894,14.559c5.471,5.616,13.186,7.608,20.806,6.405a2.418,2.418,0,0,0,1.677-2.952,2.46,2.46,0,0,0-2.953-1.676A18.428,18.428,0,0,1,30.854,155.6a18.117,18.117,0,0,1-4.015-5.692,15.743,15.743,0,0,1-.921-3.2c-.095-.52-.024-.01-.05-.4-.015-.227-.034-.454-.041-.681-.023-.731.013-1.466.046-2.2a93.9,93.9,0,0,1,3.073-19.237,106.008,106.008,0,0,0,2.594-15.9,263.13,263.13,0,0,0,1.178-26.471c0-3.088-4.8-3.093-4.8,0Z"/><path class="c" d="M84.987,119.09a19.263,19.263,0,0,0,9.278,2.148,15.1,15.1,0,0,0,9.361-2.76,2.413,2.413,0,0,0,0-3.394,2.462,2.462,0,0,0-3.394,0c.727-.566.16-.131-.027-.011s-.378.229-.574.332c-.1.053-.206.1-.308.153-.374.193.081.021.094-.03-.024.094-.692.256-.792.288a13.9,13.9,0,0,1-2.215.5c.352-.052-.074,0-.215.019q-.326.033-.653.054c-.524.034-1.049.047-1.575.044-.47,0-.941-.019-1.41-.051q-.324-.021-.646-.053c-.022,0-.8-.111-.315-.035a15.735,15.735,0,0,1-2.07-.459c-.29-.087-.573-.191-.859-.289-.614-.21.349.181-.2-.08q-.533-.251-1.052-.525a2.453,2.453,0,0,0-3.284.861,2.426,2.426,0,0,0,.861,3.283Z"/><path class="c" d="M93.051,97.226a43.528,43.528,0,0,1,1.025,4.691l-.085-.638a2.867,2.867,0,0,1,.017.648l.086-.638a1.526,1.526,0,0,1-.071.291l.242-.573a1.215,1.215,0,0,1-.1.187l.375-.486a.95.95,0,0,1-.153.151l.486-.375a3.074,3.074,0,0,1-.372.2l.573-.242a2.675,2.675,0,0,1-.626.182l.638-.085a2.514,2.514,0,0,1-.588,0l.638.085c-.221-.031-.439-.084-.66-.114a1.812,1.812,0,0,0-.957-.043,1.778,1.778,0,0,0-.893.285,2.4,2.4,0,0,0-.861,3.283,2.3,2.3,0,0,0,1.434,1.1c.5.068.994.2,1.506.219a4.81,4.81,0,0,0,2.219-.528,3.2,3.2,0,0,0,1.774-2.11,5.282,5.282,0,0,0-.022-2.273c-.255-1.512-.605-3.009-.993-4.492a2.4,2.4,0,0,0-4.629,1.276Z"/><path class="c" d="M68.242,83.943c-.783,2.546-.273,8.4,4.55,8.9,6.375-.038,6.714-7.118,4.568-10.447C75.6,79.67,70.437,78.537,68.242,83.943Z"/><path class="c" d="M119.288,83.943c.784,2.546.273,8.4-4.55,8.9-6.374-.038-6.714-7.118-4.568-10.447C111.927,79.67,117.093,78.537,119.288,83.943Z"/><path class="d" d="M91.6,169.828q1.258.174,2.486.354c10.194-1.5,22.21-2.673,33.228-3.907-.12-.842-.25-1.753-.441-3.057a7.328,7.328,0,0,1,3.75-7.49,27.435,27.435,0,0,0,3.95-2.37c8.086-6.105,12.48-10.132,15.014-17.456,9.037,3.7,16.568,8.108,22.632,14.618,6.724,8.057,11.6,17.067,12.174,36.367A152.239,152.239,0,0,1,171.429,254a41.842,41.842,0,0,1-17,18.448,38.2,38.2,0,0,1-30.172,3.39l-.407-.135c-8.017-2.716-13.739-7.164-17.9-13.965a44.317,44.317,0,0,1-3.594-7.522H86.045a41.737,41.737,0,0,1-3.526,7.522c-4.164,6.8-9.885,11.249-17.9,13.965l-.407.135a38.193,38.193,0,0,1-30.171-3.39c-7.189-4.159-12.916-10.687-17.116-18C5.506,234.59,2.41,209.45,2.353,186.887c1.066-19.237,7.172-28.31,13.9-36.367,5.8-6.221,12.93-10.527,21.442-14.123,2.557,7.014,6.933,11,14.834,16.961a27.435,27.435,0,0,0,3.95,2.37,7.328,7.328,0,0,1,3.75,7.49c-.182,1.245-.308,2.132-.424,2.942C70.229,167.336,81.639,168.451,91.6,169.828Z"/><path class="c" d="M86.637,242.465c-1.412,8-3.928,16.358-9.477,22.513a31.833,31.833,0,0,1-20.319,9.981,36.447,36.447,0,0,1-24.136-6.19c-6.98-4.809-11.993-11.881-15.779-19.355-8-15.8-10.984-33.816-11.881-51.347a103.894,103.894,0,0,1-.155-13.25,67.686,67.686,0,0,1,1.987-12.142A49.076,49.076,0,0,1,14.8,156.2a45.225,45.225,0,0,1,5.722-6.546,50.794,50.794,0,0,1,8.532-6.281c6.9-4.106,14.493-6.881,22.1-9.362,2.13-.694,4.268-1.362,6.41-2.02,2.944-.9,1.689-5.539-1.276-4.628-15.234,4.678-32.544,10.039-42.959,22.943a57.734,57.734,0,0,0-9.681,16.6C.668,175.138-.195,183.952.035,192.646c.5,18.731,3.143,37.805,10.786,55.054,3.688,8.324,8.645,16.307,15.63,22.267A41.345,41.345,0,0,0,51.705,279.9a38.289,38.289,0,0,0,24.762-7.761c6.8-5.28,10.8-12.992,13.142-21.141a70.973,70.973,0,0,0,1.656-7.259,2.468,2.468,0,0,0-1.676-2.952,2.42,2.42,0,0,0-2.952,1.676Z"/><path class="c" d="M97.054,243.741c1.526,8.63,4.6,17.381,10.395,24.1a35.971,35.971,0,0,0,21.311,11.547,41.154,41.154,0,0,0,26.53-4.661,43.78,43.78,0,0,0,17.879-18.795c8.5-17.81,12.751-37.849,13.563-57.5.636-15.406-.146-32.038-9.315-45.079a49.83,49.83,0,0,0-15.575-14.123c-7.184-4.275-15.131-7.191-23.049-9.78-2.2-.718-4.4-1.407-6.611-2.085-2.959-.909-4.225,3.722-1.276,4.628,7.852,2.411,15.754,4.91,23.157,8.507,6.2,3.012,12.536,6.907,16.951,12.306a45.787,45.787,0,0,1,7.79,13.73c2.546,7.511,3.163,15.478,3.254,23.359a151.7,151.7,0,0,1-9.486,55.09,68.391,68.391,0,0,1-5.453,12.006,39.7,39.7,0,0,1-7.953,9.188,36.748,36.748,0,0,1-22.4,8.921,33.54,33.54,0,0,1-21.886-6.76c-6.041-4.759-9.522-11.783-11.623-19.038a65.623,65.623,0,0,1-1.574-6.839,2.421,2.421,0,0,0-2.953-1.676,2.453,2.453,0,0,0-1.676,2.952Z"/><path class="b" d="M130.628,155.731a28.107,28.107,0,0,0,3.948-2.368c8.492-6.416,12.914-10.536,15.382-18.585,2.428-7.937,3.264-18.6,3.294-31.378-.1-4.139-.088-6.284-.38-9.422-.109-1.169-.26-2.476-.476-4.076a4.8,4.8,0,0,0-2.146-2.992,4.2,4.2,0,0,0-4.341-.01c-2.921,1.541-4.281,7.253-4.281,7.253s-.5,2.085-.963,4.042c-4.739-2.843-6.414,9.144-7.3,12.383a36.487,36.487,0,0,1-19.87,25.116c-17.1,5.642-15.167,19.251-14.026,33.752,8.908-1.16,18.7-2.149,27.852-3.173-.123-.842-.253-1.755-.436-3.058A7.317,7.317,0,0,1,130.628,155.731Z"/><path class="c" d="M101.856,169.438c-.563-7.187-1.763-15,.782-21.732a14.945,14.945,0,0,1,5.919-7.1,46.087,46.087,0,0,1,6.141-2.835,32.651,32.651,0,0,0,5.906-3.537,39.9,39.9,0,0,0,15.1-23.158,58.864,58.864,0,0,1,2.361-8.83,11.139,11.139,0,0,1,.952-1.742c.24-.343-.324.422.081-.088a2.559,2.559,0,0,1,.276-.275c-.5.462-.049.042-.05.043q.354-.19-.11.015l.161-.05.164-.038c-.33.037-.4.056-.214.055.3.1-.529-.076.147.017a2.3,2.3,0,0,1,.422.123c-.41-.153-.087-.016,0,.02.54.23-.157-.18.093.039a4.344,4.344,0,0,1,.361.357c-.316-.343.23.39.319.559.212.4.062.126.024.03.084.21.152.43.216.646.111.379.189.764.262,1.151a8.324,8.324,0,0,1,.1.936c.031.447.046.895.049,1.343a36.837,36.837,0,0,1-.269,4.263,149,149,0,0,1-2.67,17.38c-.694,3.007,3.933,4.29,4.629,1.276a152.99,152.99,0,0,0,2.786-18.159,27.306,27.306,0,0,0-.087-8.784c-.759-3.474-3.844-6.979-7.768-5.792-3.57,1.08-4.837,5.9-5.655,9.057-.956,3.687-1.537,7.459-2.967,11.011a34.317,34.317,0,0,1-7.936,11.691,33.09,33.09,0,0,1-5.669,4.431,56.936,56.936,0,0,1-6.61,3.1,21.187,21.187,0,0,0-9.461,8.119c-4.736,7.829-3.266,17.813-2.588,26.461a2.461,2.461,0,0,0,2.4,2.4,2.419,2.419,0,0,0,2.4-2.4Z"/><path class="c" d="M143.941,94.786a12.842,12.842,0,0,1,2.015-4.718c.105-.147.715-.821.725-.829a2.369,2.369,0,0,1,1.682-.527c1.567.229,1.722,1.8,1.869,3.016a132.4,132.4,0,0,1,.377,22.182c-.334,6.848-.964,13.824-3.02,20.4-1.8,5.771-5.555,9.989-10.146,13.78a58.887,58.887,0,0,1-5.029,3.867c-1.733,1.14-3.728,1.864-5.206,3.37a9.693,9.693,0,0,0-2.638,5.095c-.364,2.181.123,4.324.432,6.485a2.415,2.415,0,0,0,2.952,1.677,2.464,2.464,0,0,0,1.677-2.953c-.233-1.626-.705-3.355-.2-4.968a5.383,5.383,0,0,1,2.907-3.131,54.64,54.64,0,0,0,9.914-7.249,36.11,36.11,0,0,0,6.518-7.236,31.222,31.222,0,0,0,3.9-9.031c2.036-7.46,2.6-15.331,2.854-23.029q.213-6.4,0-12.8c-.053-1.624-.154-3.244-.319-4.86-.2-1.961-.205-4.151-1.223-5.894a6.912,6.912,0,0,0-11.29-.95,17.14,17.14,0,0,0-3.385,7.027c-.726,3,3.9,4.282,4.629,1.276Z"/><path class="b" d="M56.474,155.731a28.169,28.169,0,0,1-3.949-2.368c-8.491-6.416-12.914-10.536-15.381-18.585-2.428-7.937-3.264-18.6-3.294-31.378.1-4.139.087-6.284.38-9.422.108-1.169.26-2.476.476-4.076a4.8,4.8,0,0,1,2.145-2.992,4.2,4.2,0,0,1,4.342-.01c2.921,1.541,4.281,7.253,4.281,7.253l.962,4.042c4.74-2.843,6.415,9.144,7.3,12.383a36.491,36.491,0,0,0,19.871,25.116c17.1,5.642,15.166,19.251,14.026,33.752-8.908-1.16-18.706-2.149-27.852-3.173.122-.842.253-1.755.436-3.058A7.319,7.319,0,0,0,56.474,155.731Z"/><path class="c" d="M90.045,169.438c.61-7.773,1.835-16.327-1.251-23.751a19.976,19.976,0,0,0-7.827-9.226,40.447,40.447,0,0,0-6.477-3,26.972,26.972,0,0,1-6.118-3.8A35.022,35.022,0,0,1,59.1,118.448,45.266,45.266,0,0,1,55.4,107.094c-.756-3.367-1.544-7.482-4.009-10.073-2.8-2.94-7.374-1.537-9.107,1.837-1.655,3.221-1.435,7.152-1.054,10.646a160.431,160.431,0,0,0,2.858,18.8c.7,3.009,5.324,1.736,4.629-1.276A140.822,140.822,0,0,1,46.11,110.2c-.113-1.057-.233-2.112-.288-3.174-.037-.707-.053-1.415-.033-2.123a11.07,11.07,0,0,1,.184-2.029c.075-.345.149-.687.252-1.024q.068-.217.144-.432c.14-.388-.26.459.063-.135a5.156,5.156,0,0,1,.437-.724c-.26.335.548-.4.248-.178.105-.077.518-.233.087-.073a2.305,2.305,0,0,1,.422-.123c.518-.072.128-.054.059-.015.294-.168-.077-.072-.044-.038.086.091.6.088-.019-.034a1.267,1.267,0,0,1,.3.188c-.329-.609.443.591.1.13a11.507,11.507,0,0,1,1.8,4.135c.461,1.566.815,3.16,1.168,4.753a46.028,46.028,0,0,0,3.969,11.569A39.158,39.158,0,0,0,69.442,136.2a65.855,65.855,0,0,0,6.294,2.882,16.722,16.722,0,0,1,7.847,6.784c1.757,3.128,2.271,6.836,2.352,10.521a130.034,130.034,0,0,1-.69,13.055,2.421,2.421,0,0,0,2.4,2.4,2.447,2.447,0,0,0,2.4-2.4Z"/><path class="c" d="M47.79,93.51a18.27,18.27,0,0,0-2.5-5.864c-2.347-3.454-6.883-5.1-10.43-2.234-3.05,2.465-2.94,6.753-3.173,10.348-.253,3.9-.27,7.831-.2,11.737.141,8.037.577,16.2,2.335,24.063a37.455,37.455,0,0,0,3.318,9.483,30.6,30.6,0,0,0,5.9,7.586c1.411,1.357,2.912,2.617,4.442,3.837a47.917,47.917,0,0,0,5.886,4.306c1.653.945,3.373,1.6,4.166,3.478.725,1.715.194,3.62-.058,5.38a2.482,2.482,0,0,0,1.676,2.953,2.418,2.418,0,0,0,2.953-1.677,23.945,23.945,0,0,0,.563-5.494,9.763,9.763,0,0,0-1.815-4.932,11.885,11.885,0,0,0-4.18-3.367,34.233,34.233,0,0,1-4.84-3.287c-4.668-3.643-9.241-7.644-11.518-13.259-2.489-6.142-3.195-13.062-3.641-19.615a147.6,147.6,0,0,1-.08-22.539c.129-1.5.02-3.759.864-4.859a2.083,2.083,0,0,1,3.283.012,11.434,11.434,0,0,1,2.425,5.22c.726,3,5.356,1.731,4.629-1.276Z"/><path class="c" d="M151.277,217.659c-2.2-10.1-4.311-20.22-6.42-30.339q-1.507-7.234-3.018-14.467c-.416-1.986-.739-4.023-1.261-5.984a5.34,5.34,0,0,0-2.171-3.1,5.975,5.975,0,0,0-4.349-.672c-11.768,1.431-23.58,2.492-35.334,4.044a11.008,11.008,0,0,0-4.014.885,5.381,5.381,0,0,0-2.451,3.279,19.007,19.007,0,0,0-.3,4.41q-.063,2.434-.092,4.871-.115,9.609.292,19.215c.616,14.752,2.7,29.359,4.892,43.945a2.416,2.416,0,0,0,2.952,1.676,2.461,2.461,0,0,0,1.677-2.952C99.869,230.4,98.1,218.314,97.3,206.132c-.4-6.094-.585-12.207-.637-18.314q-.039-4.469.037-8.937.036-2.2.1-4.4c.015-.527-.187-2,.336-2.319a4.858,4.858,0,0,1,1.378-.2q.858-.115,1.717-.224,2.19-.282,4.383-.543,4.275-.512,8.557-.977c5.611-.618,11.226-1.205,16.835-1.85q1.923-.221,3.846-.453c.424-.052,1.614-.447,2.009-.111.192.163.274,1.192.327,1.445q.123.577.244,1.155.324,1.537.647,3.076,1.4,6.687,2.791,13.376c2.229,10.7,4.451,21.4,6.783,32.076.658,3.016,5.287,1.74,4.628-1.276Z"/><path class="c" d="M41.518,218.935c2.064-9.451,4.04-18.92,6.015-28.39Q49,183.5,50.469,176.46q.618-2.953,1.239-5.905a8.268,8.268,0,0,1,.556-2.579c.407-.513,1.183-.164,1.845-.084,11.2,1.361,22.428,2.391,33.615,3.821q.966.123,1.933.252a4.555,4.555,0,0,1,1.376.2c.487.346.314,1.488.331,2.07q.138,4.621.156,9.245.033,9-.388,17.989a401.218,401.218,0,0,1-4.5,40.992,2.477,2.477,0,0,0,1.676,2.952,2.417,2.417,0,0,0,2.952-1.676c1.948-12.97,3.736-25.985,4.5-39.086.375-6.405.545-12.826.556-19.242q.007-4.853-.117-9.7c-.073-2.842.078-6.058-2.747-7.689a10.06,10.06,0,0,0-3.8-.856q-2.385-.316-4.773-.606-4.484-.548-8.975-1.037c-5.914-.655-11.832-1.272-17.744-1.951q-2.028-.234-4.056-.479a6.037,6.037,0,0,0-4.211.583c-2.17,1.354-2.432,3.767-2.913,6.05q-1.449,6.879-2.876,13.762c-2.374,11.4-4.735,22.8-7.219,34.172-.658,3.011,3.969,4.3,4.628,1.276Z"/><path class="c" d="M102.358,251.82H86.048a2.4,2.4,0,0,0,0,4.8h16.31a2.4,2.4,0,0,0,0-4.8Z"/></svg>